<svg xmlns="http://www.w3.org/2000/svg" xmlns:xlink="http://www.w3.org/1999/xlink" version="1.1" width="256" height="256" viewBox="0 0 256 256" xml:space="preserve">
<desc>Created with Fabric.js 1.7.22</desc>
<defs>
</defs>
<g transform="translate(128 128) scale(0.72 0.72)" style="">
	<g style="stroke: none; stroke-width: 0; stroke-dasharray: none; stroke-linecap: butt; stroke-linejoin: miter; stroke-miterlimit: 10; fill: none; fill-rule: nonzero; opacity: 1;" transform="translate(-175.05 -175.05000000000004) scale(3.89 3.89)" >
	<path d="M 40.051 84.916 c -0.232 0 -0.464 -0.04 -0.688 -0.122 L 1.312 70.858 C 0.524 70.57 0 69.819 0 68.98 V 20.748 c 0 -0.653 0.319 -1.265 0.854 -1.64 c 0.536 -0.374 1.22 -0.464 1.833 -0.238 l 38.051 13.935 c 0.788 0.289 1.312 1.039 1.312 1.878 v 48.233 c 0 0.653 -0.319 1.266 -0.854 1.64 C 40.856 84.793 40.456 84.916 40.051 84.916 z M 4 67.583 l 34.051 12.471 V 36.081 L 4 23.61 V 67.583 z" style="stroke: none; stroke-width: 1; stroke-dasharray: none; stroke-linecap: butt; stroke-linejoin: miter; stroke-miterlimit: 10; fill: rgb(96,105,117); fill-rule: nonzero; opacity: 1;" transform=" matrix(1 0 0 1 0 0) " stroke-linecap="round" />
	<path d="M 40.051 84.916 c -0.404 0 -0.805 -0.123 -1.146 -0.36 c -0.536 -0.374 -0.854 -0.986 -0.854 -1.64 V 34.683 c 0 -1.104 0.896 -2 2 -2 s 2 0.896 2 2 v 45.371 l 7.339 -2.688 c 1.034 -0.381 2.186 0.152 2.565 1.19 c 0.38 1.037 -0.153 2.186 -1.19 2.565 l -10.027 3.672 C 40.516 84.876 40.283 84.916 40.051 84.916 z" style="stroke: none; stroke-width: 1; stroke-dasharray: none; stroke-linecap: butt; stroke-linejoin: miter; stroke-miterlimit: 10; fill: rgb(96,105,117); fill-rule: nonzero; opacity: 1;" transform=" matrix(1 0 0 1 0 0) " stroke-linecap="round" />
	<path d="M 78.103 44.279 c -1.104 0 -2 -0.896 -2 -2 V 23.61 L 40.739 36.561 c -1.037 0.38 -2.186 -0.153 -2.566 -1.19 c -0.38 -1.038 0.153 -2.186 1.19 -2.566 L 77.415 18.87 c 0.611 -0.227 1.297 -0.136 1.833 0.238 c 0.535 0.375 0.854 0.986 0.854 1.64 v 21.531 C 80.103 43.383 79.207 44.279 78.103 44.279 z" style="stroke: none; stroke-width: 1; stroke-dasharray: none; stroke-linecap: butt; stroke-linejoin: miter; stroke-miterlimit: 10; fill: rgb(96,105,117); fill-rule: nonzero; opacity: 1;" transform=" matrix(1 0 0 1 0 0) " stroke-linecap="round" />
	<path d="M 40.051 36.683 c -0.233 0 -0.466 -0.041 -0.688 -0.122 L 1.312 22.626 C 0.524 22.337 0 21.587 0 20.748 s 0.524 -1.589 1.312 -1.878 L 39.364 4.936 c 0.443 -0.163 0.932 -0.163 1.375 0 L 78.79 18.87 c 0.788 0.289 1.313 1.039 1.313 1.878 s -0.524 1.589 -1.313 1.878 L 40.739 36.561 C 40.517 36.643 40.284 36.683 40.051 36.683 z M 7.816 20.748 l 32.235 11.805 l 32.235 -11.805 L 40.051 8.943 L 7.816 20.748 z" style="stroke: none; stroke-width: 1; stroke-dasharray: none; stroke-linecap: butt; stroke-linejoin: miter; stroke-miterlimit: 10; fill: rgb(96,105,117); fill-rule: nonzero; opacity: 1;" transform=" matrix(1 0 0 1 0 0) " stroke-linecap="round" />
	<path d="M 20.064 42.452 c -1.104 0 -2 -0.896 -2 -2 V 27.364 c 0 -0.843 0.529 -1.596 1.322 -1.881 l 38.356 -13.824 c 1.036 -0.377 2.185 0.164 2.56 1.203 c 0.374 1.039 -0.165 2.185 -1.204 2.56 L 22.064 28.769 v 11.683 C 22.064 41.556 21.169 42.452 20.064 42.452 z" style="stroke: none; stroke-width: 1; stroke-dasharray: none; stroke-linecap: butt; stroke-linejoin: miter; stroke-miterlimit: 10; fill: rgb(96,105,117); fill-rule: nonzero; opacity: 1;" transform=" matrix(1 0 0 1 0 0) " stroke-linecap="round" />
	<path d="M 66.608 73.149 c -0.53 0 -1.039 -0.211 -1.414 -0.586 l -6.236 -6.236 c -0.781 -0.781 -0.781 -2.047 0 -2.828 s 2.047 -0.781 2.828 0 l 4.822 4.822 l 11.058 -11.059 c 0.781 -0.781 2.047 -0.781 2.828 0 s 0.781 2.047 0 2.828 L 68.022 72.563 C 67.647 72.938 67.139 73.149 66.608 73.149 z" style="stroke: none; stroke-width: 1; stroke-dasharray: none; stroke-linecap: butt; stroke-linejoin: miter; stroke-miterlimit: 10; fill: rgb(96,105,117); fill-rule: nonzero; opacity: 1;" transform=" matrix(1 0 0 1 0 0) " stroke-linecap="round" />
	<path d="M 69.727 85.187 c -11.18 0 -20.274 -9.095 -20.274 -20.273 c 0 -11.18 9.095 -20.274 20.274 -20.274 C 80.905 44.639 90 53.733 90 64.913 C 90 76.092 80.905 85.187 69.727 85.187 z M 69.727 48.639 c -8.974 0 -16.274 7.301 -16.274 16.274 s 7.301 16.273 16.274 16.273 S 86 73.887 86 64.913 S 78.7 48.639 69.727 48.639 z" style="stroke: none; stroke-width: 1; stroke-dasharray: none; stroke-linecap: butt; stroke-linejoin: miter; stroke-miterlimit: 10; fill: rgb(96,105,117); fill-rule: nonzero; opacity: 1;" transform=" matrix(1 0 0 1 0 0) " stroke-linecap="round" />
</g>
</g>
</svg>