<svg xmlns="http://www.w3.org/2000/svg" xmlns:xlink="http://www.w3.org/1999/xlink" version="1.1" width="256" height="256" viewBox="0 0 256 256" xml:space="preserve">
<desc>Created with Fabric.js 1.7.22</desc>
<defs>
</defs>
<g transform="translate(128 128) scale(0.72 0.72)" style="">
	<g style="stroke: none; stroke-width: 0; stroke-dasharray: none; stroke-linecap: butt; stroke-linejoin: miter; stroke-miterlimit: 10; fill: none; fill-rule: nonzero; opacity: 1;" transform="translate(-175.05 -175.05000000000004) scale(3.89 3.89) matrix(-1 0 0 1 90 0) " >
	<path d="M 76.962 85.395 H 13.039 c -1.104 0 -2 -0.896 -2 -2 V 40.991 c 0 -1.104 0.896 -2 2 -2 s 2 0.896 2 2 v 40.403 h 59.923 V 40.991 c 0 -1.104 0.896 -2 2 -2 s 2 0.896 2 2 v 42.403 C 78.962 84.499 78.066 85.395 76.962 85.395 z" style="stroke: none; stroke-width: 1; stroke-dasharray: none; stroke-linecap: butt; stroke-linejoin: miter; stroke-miterlimit: 10; fill: rgb(255,255,255); fill-rule: nonzero; opacity: 1;" transform=" matrix(1 0 0 1 0 0) " stroke-linecap="round" />
	<path d="M 87.998 40.831 c -0.387 0 -0.778 -0.112 -1.122 -0.346 L 45 12.023 L 3.124 40.485 c -0.913 0.622 -2.157 0.383 -2.778 -0.53 c -0.621 -0.913 -0.383 -2.157 0.53 -2.778 l 43 -29.226 c 0.678 -0.461 1.57 -0.461 2.248 0 l 43 29.226 c 0.914 0.621 1.151 1.865 0.53 2.778 C 89.268 40.524 88.639 40.831 87.998 40.831 z" style="stroke: none; stroke-width: 1; stroke-dasharray: none; stroke-linecap: butt; stroke-linejoin: miter; stroke-miterlimit: 10; fill: rgb(255,255,255); fill-rule: nonzero; opacity: 1;" transform=" matrix(1 0 0 1 0 0) " stroke-linecap="round" />
	<path d="M 76.962 23.319 c -1.104 0 -2 -0.896 -2 -2 v -6.094 h -9.01 c -1.104 0 -2 -0.896 -2 -2 s 0.896 -2 2 -2 h 11.01 c 1.104 0 2 0.896 2 2 v 8.094 C 78.962 22.423 78.066 23.319 76.962 23.319 z" style="stroke: none; stroke-width: 1; stroke-dasharray: none; stroke-linecap: butt; stroke-linejoin: miter; stroke-miterlimit: 10; fill: rgb(255,255,255); fill-rule: nonzero; opacity: 1;" transform=" matrix(1 0 0 1 0 0) " stroke-linecap="round" />
	<path d="M 39.373 75.782 c -1.104 0 -2 -0.896 -2 -2 V 47.774 h -10.65 v 26.008 c 0 1.104 -0.896 2 -2 2 s -2 -0.896 -2 -2 V 45.774 c 0 -1.104 0.896 -2 2 -2 h 14.65 c 1.104 0 2 0.896 2 2 v 28.008 C 41.373 74.887 40.478 75.782 39.373 75.782 z" style="stroke: none; stroke-width: 1; stroke-dasharray: none; stroke-linecap: butt; stroke-linejoin: miter; stroke-miterlimit: 10; fill: rgb(255,255,255); fill-rule: nonzero; opacity: 1;" transform=" matrix(1 0 0 1 0 0) " stroke-linecap="round" />
	<path d="M 65.276 61.778 H 50.627 c -1.104 0 -2 -0.896 -2 -2 V 45.774 c 0 -1.104 0.896 -2 2 -2 h 14.649 c 1.104 0 2 0.896 2 2 v 14.004 C 67.276 60.883 66.381 61.778 65.276 61.778 z M 52.627 57.778 h 10.649 V 47.774 H 52.627 V 57.778 z" style="stroke: none; stroke-width: 1; stroke-dasharray: none; stroke-linecap: butt; stroke-linejoin: miter; stroke-miterlimit: 10; fill: rgb(255,255,255); fill-rule: nonzero; opacity: 1;" transform=" matrix(1 0 0 1 0 0) " stroke-linecap="round" />
</g>
</g>
</svg>