<svg width="95" height="57" viewBox="0 0 95 57" fill="none" xmlns="http://www.w3.org/2000/svg">
<g clip-path="url(#clip0)">
<rect width="95" height="57" fill="black"/>
<g filter="url(#filter0_d)">
<path d="M2.77164 16.8213V54.7639H13.7626V42.3394L26.5694 54.7639H36.8914V41.0014H50.2716V31.1573H36.1268V26.7609H53.999V16.8213H25.996L13.7626 29.5326V16.8213H2.77164Z" stroke="url(#paint0_linear)" stroke-width="1.91147"/>
</g>
<g filter="url(#filter1_d)">
<path d="M29.7317 17.2807L25.6137 10.3117L44.1977 3.87061L62.8873 10.3117L59.7196 17.2807H29.7317Z" fill="url(#paint1_radial)"/>
</g>
<g filter="url(#filter2_i)">
<ellipse cx="45.2063" cy="19.0193" rx="14.2404" ry="4.87425" fill="black"/>
</g>
<path d="M26.7606 26.4741L36.1268 26.6653V54.1904L26.7606 54.0948V26.4741Z" fill="#6A6B6C"/>
<g filter="url(#filter3_d)">
<path d="M72.4427 26.6652L81.8109 17.3945H90.9859V21.9821L79.0372 33.3553L72.4427 26.6652Z" fill="#00A8CD"/>
</g>
<g filter="url(#filter4_d)">
<path d="M65.5634 33.2598L72.5403 26.4741L79.2304 33.1643L72.5403 40.2367L65.5634 33.2598Z" fill="#076E8E"/>
<path d="M65.5634 33.2598L72.5403 26.4741L79.2304 33.1643L72.5403 40.2367L65.5634 33.2598Z" stroke="url(#paint2_linear)" stroke-width="0.191147"/>
</g>
<path d="M36.1268 31.1577H49.6982L49.7938 40.3328L36.1268 40.2372V31.1577Z" fill="#6A6B6C"/>
<path d="M26.7606 54.095V44.9199L35.9356 54.095H26.7606Z" fill="#565353"/>
<path d="M26.8561 26.5696L54.3813 26.7607L54.2857 17.3945H35.9356L26.8561 26.5696Z" fill="#00A8CD"/>
<path d="M26.7606 17.3945H35.9356L26.7606 26.6652V17.3945Z" fill="#076E8E"/>
<path d="M54.2857 17.3945H63.4608L54.3813 26.9519L54.2857 17.3945Z" fill="#076E8E"/>
<path d="M12.9024 31.0615L26.7606 44.9197V54.0947L12.998 40.3321L12.9024 31.0615Z" fill="url(#paint3_linear)"/>
<path d="M12.998 31.1571C12.998 31.31 6.88129 37.2738 3.82294 40.3322V17.3945H12.998V31.1571Z" fill="url(#paint4_linear)"/>
<g filter="url(#filter5_d)">
<path d="M12.998 31.1571L26.7606 17.3945V26.5696L12.998 40.3322V31.1571Z" fill="#00A8CD"/>
</g>
<path d="M3.82294 54.0947V49.4115L8.50604 44.824L12.998 40.332V54.0947H3.82294Z" fill="url(#paint5_linear)"/>
<path d="M3.82294 40.3328L12.998 31.1577V40.3328L8.50604 44.9203L3.82294 49.4122V40.3328Z" fill="#94979A"/>
<g filter="url(#filter6_d)">
<path d="M54.3813 26.8563L63.4608 17.3945V53.9992H54.3813V26.8563Z" fill="url(#paint6_linear)"/>
</g>
<path d="M26.8561 40.3328L36.0312 31.1577V40.3328H26.8561Z" fill="#565353"/>
<g filter="url(#filter7_d)">
<path d="M63.4608 17.3945L72.6088 26.4511L65.5634 33.2597L63.3158 31.1571L63.4608 17.3945Z" fill="#00A8CD"/>
</g>
<g filter="url(#filter8_d)">
<path d="M81.8109 30.7205L90.9859 21.9824L91.0815 53.9995H81.8109V30.7205Z" fill="url(#paint7_linear)"/>
</g>
<path d="M63.1854 10.3985C62.6694 11.7759 57.6952 12.3137 52.5836 10.3985C47.472 8.48335 44.1587 4.84037 44.6747 3.46304C45.1908 2.08572 49.7609 5.35027 54.8725 7.26545C59.9841 9.18063 63.7015 9.02121 63.1854 10.3985Z" fill="black"/>
<path d="M43.4149 3.18149C44.0404 4.72769 40.7694 8.59756 35.6619 10.6637C30.5544 12.7299 25.5445 12.2099 24.919 10.6637C24.2935 9.11751 28.5592 9.05906 33.6667 6.9929C38.7742 4.92673 42.7894 1.63528 43.4149 3.18149Z" fill="black"/>
<g filter="url(#filter9_d)">
<circle cx="44.0211" cy="2.48546" r="1.72032" fill="#D12828"/>
</g>
<g filter="url(#filter10_d)">
<circle cx="63.3652" cy="9.84425" r="1.4336" fill="#D12828"/>
</g>
<g filter="url(#filter11_d)">
<circle cx="25.7093" cy="10.6089" r="1.4336" fill="#D12828"/>
</g>
<path d="M12.998 31.1577L17.5855 35.7452L12.998 40.3328V31.1577Z" fill="#076E8E"/>
<path d="M12.998 40.3328L8.41046 35.7452L12.998 31.1577V40.3328Z" fill="#4E4747"/>
<path d="M64.2254 17.3945H54.4769V54.0947H64.2254V33.1641L72.6358 40.4277L81.6197 32.1128V54.0947H91.2726L90.8904 17.3945H81.6197L72.6358 26.5261L64.2254 17.3945Z" stroke="url(#paint8_linear)" stroke-width="1.91147"/>
</g>
<defs>
<filter id="filter0_d" x="0.582121" y="14.0151" width="58.0739" height="44.7892" filterUnits="userSpaceOnUse" color-interpolation-filters="sRGB">
<feFlood flood-opacity="0" result="BackgroundImageFix"/>
<feColorMatrix in="SourceAlpha" type="matrix" values="0 0 0 0 0 0 0 0 0 0 0 0 0 0 0 0 0 0 127 0"/>
<feOffset dx="1.23377" dy="0.616883"/>
<feGaussianBlur stdDeviation="1.23377"/>
<feColorMatrix type="matrix" values="0 0 0 0 0 0 0 0 0 0 0 0 0 0 0 0 0 0 1 0"/>
<feBlend mode="normal" in2="BackgroundImageFix" result="effect1_dropShadow"/>
<feBlend mode="normal" in="SourceGraphic" in2="effect1_dropShadow" result="shape"/>
</filter>
<filter id="filter1_d" x="23.1461" y="3.25372" width="43.4425" height="19.5789" filterUnits="userSpaceOnUse" color-interpolation-filters="sRGB">
<feFlood flood-opacity="0" result="BackgroundImageFix"/>
<feColorMatrix in="SourceAlpha" type="matrix" values="0 0 0 0 0 0 0 0 0 0 0 0 0 0 0 0 0 0 127 0"/>
<feOffset dx="0.616883" dy="2.46753"/>
<feGaussianBlur stdDeviation="1.54221"/>
<feColorMatrix type="matrix" values="0 0 0 0 0 0 0 0 0 0 0 0 0 0 0 0 0 0 0.79 0"/>
<feBlend mode="normal" in2="BackgroundImageFix" result="effect1_dropShadow"/>
<feBlend mode="normal" in="SourceGraphic" in2="effect1_dropShadow" result="shape"/>
</filter>
<filter id="filter2_i" x="30.9658" y="14.145" width="29.7147" height="10.3654" filterUnits="userSpaceOnUse" color-interpolation-filters="sRGB">
<feFlood flood-opacity="0" result="BackgroundImageFix"/>
<feBlend mode="normal" in="SourceGraphic" in2="BackgroundImageFix" result="shape"/>
<feColorMatrix in="SourceAlpha" type="matrix" values="0 0 0 0 0 0 0 0 0 0 0 0 0 0 0 0 0 0 127 0" result="hardAlpha"/>
<feOffset dx="1.23377" dy="0.616883"/>
<feGaussianBlur stdDeviation="1.54221"/>
<feComposite in2="hardAlpha" operator="arithmetic" k2="-1" k3="1"/>
<feColorMatrix type="matrix" values="0 0 0 0 0 0 0 0 0 0 0 0 0 0 0 0 0 0 1 0"/>
<feBlend mode="normal" in2="shape" result="effect1_innerShadow"/>
</filter>
<filter id="filter3_d" x="71.2089" y="16.1608" width="24.7121" height="22.1296" filterUnits="userSpaceOnUse" color-interpolation-filters="sRGB">
<feFlood flood-opacity="0" result="BackgroundImageFix"/>
<feColorMatrix in="SourceAlpha" type="matrix" values="0 0 0 0 0 0 0 0 0 0 0 0 0 0 0 0 0 0 127 0"/>
<feOffset dx="1.85065" dy="1.85065"/>
<feGaussianBlur stdDeviation="1.54221"/>
<feColorMatrix type="matrix" values="0 0 0 0 0 0 0 0 0 0 0 0 0 0 0 0 0 0 1 0"/>
<feBlend mode="normal" in2="BackgroundImageFix" result="effect1_dropShadow"/>
<feBlend mode="normal" in="SourceGraphic" in2="effect1_dropShadow" result="shape"/>
</filter>
<filter id="filter4_d" x="64.1935" y="25.1061" width="20.1052" height="20.2027" filterUnits="userSpaceOnUse" color-interpolation-filters="sRGB">
<feFlood flood-opacity="0" result="BackgroundImageFix"/>
<feColorMatrix in="SourceAlpha" type="matrix" values="0 0 0 0 0 0 0 0 0 0 0 0 0 0 0 0 0 0 127 0"/>
<feOffset dx="1.85065" dy="1.85065"/>
<feGaussianBlur stdDeviation="1.54221"/>
<feColorMatrix type="matrix" values="0 0 0 0 0 0 0 0 0 0 0 0 0 0 0 0 0 0 1 0"/>
<feBlend mode="normal" in2="BackgroundImageFix" result="effect1_dropShadow"/>
<feBlend mode="normal" in="SourceGraphic" in2="effect1_dropShadow" result="shape"/>
</filter>
<filter id="filter5_d" x="9.29669" y="15.5439" width="21.1652" height="30.3402" filterUnits="userSpaceOnUse" color-interpolation-filters="sRGB">
<feFlood flood-opacity="0" result="BackgroundImageFix"/>
<feColorMatrix in="SourceAlpha" type="matrix" values="0 0 0 0 0 0 0 0 0 0 0 0 0 0 0 0 0 0 127 0"/>
<feOffset dy="1.85065"/>
<feGaussianBlur stdDeviation="1.85065"/>
<feColorMatrix type="matrix" values="0 0 0 0 0 0 0 0 0 0 0 0 0 0 0 0 0 0 1 0"/>
<feBlend mode="normal" in2="BackgroundImageFix" result="effect1_dropShadow"/>
<feBlend mode="normal" in="SourceGraphic" in2="effect1_dropShadow" result="shape"/>
</filter>
<filter id="filter6_d" x="53.1475" y="14.927" width="16.4821" height="44.0072" filterUnits="userSpaceOnUse" color-interpolation-filters="sRGB">
<feFlood flood-opacity="0" result="BackgroundImageFix"/>
<feColorMatrix in="SourceAlpha" type="matrix" values="0 0 0 0 0 0 0 0 0 0 0 0 0 0 0 0 0 0 127 0"/>
<feOffset dx="2.46753" dy="1.23377"/>
<feGaussianBlur stdDeviation="1.85065"/>
<feColorMatrix type="matrix" values="0 0 0 0 0 0 0 0 0 0 0 0 0 0 0 0 0 0 1 0"/>
<feBlend mode="normal" in2="BackgroundImageFix" result="effect1_dropShadow"/>
<feBlend mode="normal" in="SourceGraphic" in2="effect1_dropShadow" result="shape"/>
</filter>
<filter id="filter7_d" x="59.6145" y="13.0763" width="16.6956" height="23.2678" filterUnits="userSpaceOnUse" color-interpolation-filters="sRGB">
<feFlood flood-opacity="0" result="BackgroundImageFix"/>
<feColorMatrix in="SourceAlpha" type="matrix" values="0 0 0 0 0 0 0 0 0 0 0 0 0 0 0 0 0 0 127 0"/>
<feOffset dy="-0.616883"/>
<feGaussianBlur stdDeviation="1.85065"/>
<feColorMatrix type="matrix" values="0 0 0 0 0 0 0 0 0 0 0 0 0 0 0 0 0 0 1 0"/>
<feBlend mode="normal" in2="BackgroundImageFix" result="effect1_dropShadow"/>
<feBlend mode="normal" in="SourceGraphic" in2="effect1_dropShadow" result="shape"/>
</filter>
<filter id="filter8_d" x="79.9602" y="19.5149" width="16.6732" height="39.4197" filterUnits="userSpaceOnUse" color-interpolation-filters="sRGB">
<feFlood flood-opacity="0" result="BackgroundImageFix"/>
<feColorMatrix in="SourceAlpha" type="matrix" values="0 0 0 0 0 0 0 0 0 0 0 0 0 0 0 0 0 0 127 0"/>
<feOffset dx="1.85065" dy="1.23377"/>
<feGaussianBlur stdDeviation="1.85065"/>
<feColorMatrix type="matrix" values="0 0 0 0 0 0 0 0 0 0 0 0 0 0 0 0 0 0 1 0"/>
<feBlend mode="normal" in2="BackgroundImageFix" result="effect1_dropShadow"/>
<feBlend mode="normal" in="SourceGraphic" in2="effect1_dropShadow" result="shape"/>
</filter>
<filter id="filter9_d" x="39.8333" y="-1.08551" width="8.37571" height="8.37571" filterUnits="userSpaceOnUse" color-interpolation-filters="sRGB">
<feFlood flood-opacity="0" result="BackgroundImageFix"/>
<feColorMatrix in="SourceAlpha" type="matrix" values="0 0 0 0 0 0 0 0 0 0 0 0 0 0 0 0 0 0 127 0"/>
<feOffset dy="0.616883"/>
<feGaussianBlur stdDeviation="1.23377"/>
<feColorMatrix type="matrix" values="0 0 0 0 0 0 0 0 0 0 0 0 0 0 0 0 0 0 1 0"/>
<feBlend mode="normal" in2="BackgroundImageFix" result="effect1_dropShadow"/>
<feBlend mode="normal" in="SourceGraphic" in2="effect1_dropShadow" result="shape"/>
</filter>
<filter id="filter10_d" x="60.6978" y="7.17688" width="6.5685" height="6.5685" filterUnits="userSpaceOnUse" color-interpolation-filters="sRGB">
<feFlood flood-opacity="0" result="BackgroundImageFix"/>
<feColorMatrix in="SourceAlpha" type="matrix" values="0 0 0 0 0 0 0 0 0 0 0 0 0 0 0 0 0 0 127 0"/>
<feOffset dx="0.616883" dy="0.616883"/>
<feGaussianBlur stdDeviation="0.925325"/>
<feColorMatrix type="matrix" values="0 0 0 0 0 0 0 0 0 0 0 0 0 0 0 0 0 0 1 0"/>
<feBlend mode="normal" in2="BackgroundImageFix" result="effect1_dropShadow"/>
<feBlend mode="normal" in="SourceGraphic" in2="effect1_dropShadow" result="shape"/>
</filter>
<filter id="filter11_d" x="21.1912" y="6.70776" width="9.03603" height="9.03603" filterUnits="userSpaceOnUse" color-interpolation-filters="sRGB">
<feFlood flood-opacity="0" result="BackgroundImageFix"/>
<feColorMatrix in="SourceAlpha" type="matrix" values="0 0 0 0 0 0 0 0 0 0 0 0 0 0 0 0 0 0 127 0"/>
<feOffset dy="0.616883"/>
<feGaussianBlur stdDeviation="1.54221"/>
<feColorMatrix type="matrix" values="0 0 0 0 0 0 0 0 0 0 0 0 0 0 0 0 0 0 1 0"/>
<feBlend mode="normal" in2="BackgroundImageFix" result="effect1_dropShadow"/>
<feBlend mode="normal" in="SourceGraphic" in2="effect1_dropShadow" result="shape"/>
</filter>
<linearGradient id="paint0_linear" x1="36.7958" y1="39.9501" x2="51.4185" y2="46.1623" gradientUnits="userSpaceOnUse">
<stop stop-color="#28313D"/>
<stop offset="1" stop-color="#E3E3E3" stop-opacity="0"/>
</linearGradient>
<radialGradient id="paint1_radial" cx="0" cy="0" r="1" gradientUnits="userSpaceOnUse" gradientTransform="translate(44.2505 10.5756) rotate(89.7226) scale(8.92255 24.8005)">
<stop stop-color="#D12828"/>
<stop offset="1" stop-color="#FF4E4E" stop-opacity="0.72"/>
</radialGradient>
<linearGradient id="paint2_linear" x1="72.4447" y1="38.8987" x2="72.4447" y2="32.3041" gradientUnits="userSpaceOnUse">
<stop stop-color="#DFE5EA"/>
<stop offset="1" stop-color="#DFE5EA" stop-opacity="0"/>
</linearGradient>
<linearGradient id="paint3_linear" x1="22.173" y1="42.4348" x2="27.6207" y2="50.4629" gradientUnits="userSpaceOnUse">
<stop stop-color="#5E5A5A"/>
<stop offset="1" stop-color="#C4C4C4"/>
</linearGradient>
<linearGradient id="paint4_linear" x1="8.31489" y1="17.4901" x2="8.50604" y2="37.9428" gradientUnits="userSpaceOnUse">
<stop stop-color="#00A8CD"/>
<stop offset="0.506943" stop-color="#6A6B6C"/>
</linearGradient>
<linearGradient id="paint5_linear" x1="6.88129" y1="51.6097" x2="14.6227" y2="55.2415" gradientUnits="userSpaceOnUse">
<stop stop-color="#6A6B6C"/>
<stop offset="1" stop-color="#C4C4C4"/>
</linearGradient>
<linearGradient id="paint6_linear" x1="58.8732" y1="43.1038" x2="58.7299" y2="53.808" gradientUnits="userSpaceOnUse">
<stop stop-color="#5E5555"/>
<stop offset="1" stop-color="#C4C4C4"/>
</linearGradient>
<linearGradient id="paint7_linear" x1="86.3984" y1="35.4583" x2="86.3984" y2="57.4402" gradientUnits="userSpaceOnUse">
<stop stop-color="#5E5555"/>
<stop offset="1" stop-color="#5E5555" stop-opacity="0.46"/>
</linearGradient>
<linearGradient id="paint8_linear" x1="86.494" y1="44.5374" x2="70.6288" y2="21.5042" gradientUnits="userSpaceOnUse">
<stop stop-color="#28313D"/>
<stop offset="1" stop-color="#E3E3E3" stop-opacity="0"/>
</linearGradient>
<clipPath id="clip0">
<rect width="95" height="57" fill="white"/>
</clipPath>
</defs>
</svg>
