<svg width="95" height="66" viewBox="0 0 95 66" fill="none" xmlns="http://www.w3.org/2000/svg">
<g clip-path="url(#clip0)">
<rect width="95" height="66" fill="black"/>
<g filter="url(#filter0_d)">
<path d="M3 17.0562V54.9988H13.9909V42.5743L26.7978 54.9988H37.1197V41.2362H50.5V31.3922H36.3551V26.9958H54.2274V17.0562H26.2243L13.9909 29.7674V17.0562H3Z" stroke="url(#paint0_linear)" stroke-width="1.91147"/>
</g>
<g filter="url(#filter1_d)">
<path d="M29.9601 17.5155L25.8421 10.5465L44.4261 4.10547L63.1157 10.5465L59.948 17.5155H29.9601Z" fill="url(#paint1_radial)"/>
</g>
<g filter="url(#filter2_i)">
<ellipse cx="45.4346" cy="19.2541" rx="14.2404" ry="4.87425" fill="black"/>
</g>
<path d="M26.989 26.709L36.3552 26.9001V54.4253L26.989 54.3297V26.709Z" fill="#6A6B6C"/>
<g filter="url(#filter3_d)">
<path d="M72.671 26.9L82.0392 17.6294H91.2143V22.2169L79.2656 33.5902L72.671 26.9Z" fill="#00A8CD"/>
</g>
<g filter="url(#filter4_d)">
<path d="M65.7917 33.4947L72.7686 26.709L79.4587 33.3991L72.7686 40.4716L65.7917 33.4947Z" fill="#076E8E"/>
<path d="M65.7917 33.4947L72.7686 26.709L79.4587 33.3991L72.7686 40.4716L65.7917 33.4947Z" stroke="url(#paint2_linear)" stroke-width="0.191147"/>
</g>
<path d="M36.3552 31.3926H49.9266L50.0222 40.5676L36.3552 40.4721V31.3926Z" fill="#6A6B6C"/>
<path d="M26.989 54.3298V45.1548L36.164 54.3298H26.989Z" fill="#565353"/>
<path d="M27.0845 26.8044L54.6097 26.9956L54.5141 17.6294H36.164L27.0845 26.8044Z" fill="#00A8CD"/>
<path d="M26.989 17.6294H36.164L26.989 26.9V17.6294Z" fill="#076E8E"/>
<path d="M54.5141 17.6294H63.6891L54.6097 27.1867L54.5141 17.6294Z" fill="#076E8E"/>
<path d="M13.1308 31.2964L26.9889 45.1545V54.3296L13.2263 40.567L13.1308 31.2964Z" fill="url(#paint3_linear)"/>
<path d="M13.2263 31.392C13.2263 31.5449 7.10965 37.5087 4.0513 40.567V17.6294H13.2263V31.392Z" fill="url(#paint4_linear)"/>
<g filter="url(#filter5_d)">
<path d="M13.2263 31.392L26.9889 17.6294V26.8044L13.2263 40.567V31.392Z" fill="#00A8CD"/>
</g>
<path d="M4.0513 54.3295V49.6464L8.7344 45.0588L13.2263 40.5669V54.3295H4.0513Z" fill="url(#paint5_linear)"/>
<path d="M4.0513 40.5676L13.2263 31.3926V40.5676L8.7344 45.1552L4.0513 49.6471V40.5676Z" fill="#94979A"/>
<g filter="url(#filter6_d)">
<path d="M54.6097 27.0912L63.6892 17.6294V54.234H54.6097V27.0912Z" fill="url(#paint6_linear)"/>
</g>
<path d="M27.0845 40.5676L36.2596 31.3926V40.5676H27.0845Z" fill="#565353"/>
<g filter="url(#filter7_d)">
<path d="M63.6891 17.6294L72.8372 26.686L65.7917 33.4946L63.5441 31.392L63.6891 17.6294Z" fill="#00A8CD"/>
</g>
<g filter="url(#filter8_d)">
<path d="M82.0392 30.9553L91.2143 22.2173L91.3099 54.2344H82.0392V30.9553Z" fill="url(#paint7_linear)"/>
</g>
<path d="M63.4138 10.6334C62.8977 12.0107 57.9236 12.5486 52.812 10.6334C47.7004 8.71822 44.387 5.07524 44.9031 3.69791C45.4191 2.32058 49.9892 5.58513 55.1008 7.50031C60.2124 9.4155 63.9298 9.25607 63.4138 10.6334Z" fill="black"/>
<path d="M43.6433 3.41635C44.2688 4.96256 40.9978 8.83242 35.8903 10.8986C30.7828 12.9647 25.7729 12.4448 25.1474 10.8986C24.5219 9.35237 28.7876 9.29392 33.8951 7.22776C39.0026 5.1616 43.0178 1.87014 43.6433 3.41635Z" fill="black"/>
<g filter="url(#filter9_d)">
<circle cx="44.2495" cy="2.72032" r="1.72032" fill="#D12828"/>
</g>
<g filter="url(#filter10_d)">
<circle cx="63.5935" cy="10.0791" r="1.4336" fill="#D12828"/>
</g>
<g filter="url(#filter11_d)">
<circle cx="25.9376" cy="10.8438" r="1.4336" fill="#D12828"/>
</g>
<path d="M13.2263 31.3926L17.8139 35.9801L13.2263 40.5676V31.3926Z" fill="#076E8E"/>
<path d="M13.2263 40.5676L8.63882 35.9801L13.2263 31.3926V40.5676Z" fill="#4E4747"/>
<path d="M64.4537 17.6294H54.7052V54.3296H64.4537V33.399L72.8642 40.6626L81.8481 32.3477V54.3296H91.501L91.1187 17.6294H81.8481L72.8642 26.761L64.4537 17.6294Z" stroke="url(#paint8_linear)" stroke-width="1.91147"/>
<g filter="url(#filter12_d)">
<path d="M4.92965 60.1642H4.66244L4.55171 59.7093C4.54208 59.6723 4.52603 59.6435 4.50356 59.6226C4.4811 59.6001 4.4506 59.5817 4.41209 59.5672C4.35752 59.5464 4.28611 59.5319 4.19784 59.5239C4.11118 59.5143 4.01569 59.5095 3.91137 59.5095H3.30956V60.9249L4.4819 60.884V61.2547L3.30956 61.2234V62.7063H4.04859C4.1529 62.7063 4.25321 62.7023 4.3495 62.6943C4.44739 62.6863 4.52362 62.6718 4.57819 62.6509C4.6151 62.6365 4.64319 62.618 4.66244 62.5956C4.68331 62.5731 4.70016 62.5442 4.713 62.5089L4.89354 61.9841L5.15834 62.0226C5.15674 62.1783 5.14711 62.3388 5.12945 62.5041C5.1118 62.6694 5.08773 62.8347 5.05724 63H2.26239V62.7545L2.64756 62.6846C2.68928 62.6766 2.72058 62.6598 2.74144 62.6341C2.7623 62.6084 2.77273 62.5747 2.77273 62.533V59.7165C2.77273 59.6764 2.7615 59.6435 2.73903 59.6178C2.71817 59.5905 2.68768 59.5728 2.64756 59.5648L2.26239 59.4902V59.2398H4.93447C4.9473 59.3891 4.95292 59.5399 4.95132 59.6924C4.95132 59.8449 4.94409 60.0021 4.92965 60.1642ZM7.1962 62.7545V63H5.77591V62.7545L6.16107 62.6846C6.2028 62.6766 6.23409 62.6598 6.25495 62.6341C6.27582 62.6084 6.28625 62.5747 6.28625 62.533V59.7165C6.28625 59.6764 6.27501 59.6435 6.25255 59.6178C6.23168 59.5905 6.20119 59.5728 6.16107 59.5648L5.77591 59.4902V59.2398H6.82307L8.74648 62.1743V59.7165C8.74648 59.6764 8.73525 59.6435 8.71278 59.6178C8.69192 59.5905 8.66142 59.5728 8.6213 59.5648L8.21207 59.4902V59.2398H9.56255V59.4902L9.22071 59.5648C9.18059 59.5745 9.1493 59.5921 9.12683 59.6178C9.10597 59.6419 9.09554 59.6748 9.09554 59.7165V63H8.64778L6.6353 59.9283V62.533C6.6353 62.5763 6.64573 62.6108 6.6666 62.6365C6.68746 62.6622 6.71875 62.6782 6.76048 62.6846L7.1962 62.7545ZM12.7157 63H10.7947V62.7545L11.358 62.6678C11.4013 62.6614 11.4334 62.6461 11.4543 62.6221C11.4767 62.598 11.488 62.5651 11.488 62.5234V59.5095H11.2039C11.098 59.5095 11.0009 59.5151 10.9126 59.5263C10.8244 59.5359 10.7578 59.5488 10.7128 59.5648C10.6759 59.5777 10.647 59.5953 10.6262 59.6178C10.6053 59.6386 10.59 59.6683 10.5804 59.7069L10.4239 60.3881H10.1351C10.119 60.1827 10.1134 59.9877 10.1182 59.8031C10.1246 59.6186 10.1391 59.4308 10.1616 59.2398H13.3584C13.3793 59.4308 13.3905 59.6194 13.3921 59.8055C13.3937 59.9917 13.3865 60.1859 13.3704 60.3881H13.0816L12.9275 59.7069C12.9195 59.6683 12.905 59.6386 12.8842 59.6178C12.8633 59.5953 12.8352 59.5777 12.7999 59.5648C12.7518 59.5472 12.686 59.5335 12.6025 59.5239C12.5207 59.5143 12.4244 59.5095 12.3137 59.5095H12.0224V62.5234C12.0224 62.5651 12.0336 62.598 12.0561 62.6221C12.0785 62.6461 12.1106 62.6614 12.1524 62.6678L12.7157 62.7545V63ZM16.6339 60.1642H16.3667L16.2559 59.7093C16.2463 59.6723 16.2302 59.6435 16.2078 59.6226C16.1853 59.6001 16.1548 59.5817 16.1163 59.5672C16.0617 59.5464 15.9903 59.5319 15.9021 59.5239C15.8154 59.5143 15.7199 59.5095 15.6156 59.5095H15.0138V60.9249L16.1861 60.884V61.2547L15.0138 61.2234V62.7063H15.7528C15.8571 62.7063 15.9574 62.7023 16.0537 62.6943C16.1516 62.6863 16.2278 62.6718 16.2824 62.6509C16.3193 62.6365 16.3474 62.618 16.3667 62.5956C16.3875 62.5731 16.4044 62.5442 16.4172 62.5089L16.5978 61.9841L16.8626 62.0226C16.8609 62.1783 16.8513 62.3388 16.8337 62.5041C16.816 62.6694 16.7919 62.8347 16.7614 63H13.9666V62.7545L14.3518 62.6846C14.3935 62.6766 14.4248 62.6598 14.4457 62.6341C14.4665 62.6084 14.4769 62.5747 14.4769 62.533V59.7165C14.4769 59.6764 14.4657 59.6435 14.4432 59.6178C14.4224 59.5905 14.3919 59.5728 14.3518 59.5648L13.9666 59.4902V59.2398H16.6387C16.6515 59.3891 16.6571 59.5399 16.6555 59.6924C16.6555 59.8449 16.6483 60.0021 16.6339 60.1642ZM18.5249 59.5022V61.0718C18.5778 61.075 18.6356 61.0774 18.6982 61.079C18.7608 61.0806 18.821 61.0814 18.8787 61.0814C18.9365 61.0814 18.9895 61.0814 19.0376 61.0814C19.0874 61.0814 19.1251 61.0814 19.1508 61.0814C19.3546 61.0798 19.5207 61.0108 19.6491 60.8744C19.7791 60.738 19.8441 60.5245 19.8441 60.234C19.8441 59.9917 19.7831 59.8039 19.6611 59.6707C19.5407 59.5375 19.3169 59.4709 18.9895 59.4709C18.8948 59.4709 18.8041 59.475 18.7175 59.483C18.6324 59.491 18.5682 59.4974 18.5249 59.5022ZM19.0617 62.7545V63H17.4801V62.7545L17.8605 62.6822C17.9006 62.6742 17.9319 62.659 17.9544 62.6365C17.9784 62.6124 17.9905 62.5787 17.9905 62.5354V59.7141C17.9905 59.6723 17.9792 59.6394 17.9568 59.6154C17.9343 59.5897 17.903 59.5728 17.8629 59.5648L17.4801 59.4902V59.2398H18.2577C18.3973 59.2398 18.5289 59.2342 18.6525 59.223C18.776 59.2102 18.9181 59.2037 19.0785 59.2037C19.56 59.2037 19.9034 59.2864 20.1089 59.4517C20.3143 59.6154 20.417 59.8649 20.417 60.2003C20.417 60.3865 20.3897 60.5438 20.3351 60.6722C20.2822 60.799 20.2156 60.9033 20.1353 60.9851C20.0551 61.0654 19.9668 61.1271 19.8705 61.1705C19.7759 61.2138 19.6868 61.2459 19.6033 61.2668C19.6932 61.3261 19.7726 61.4008 19.8417 61.4906C19.9107 61.5805 19.9797 61.692 20.0487 61.8253L20.4098 62.521C20.4403 62.5803 20.47 62.6213 20.4988 62.6437C20.5277 62.6662 20.5695 62.683 20.624 62.6943L20.8912 62.7545V63H20.1474C20.0736 63 20.0045 62.947 19.9404 62.8411C19.8778 62.7352 19.8047 62.594 19.7213 62.4174L19.4806 61.9047C19.4244 61.7859 19.3682 61.6776 19.3121 61.5797C19.2559 61.4818 19.1997 61.404 19.1435 61.3462C19.0232 61.3462 18.9084 61.3462 18.7993 61.3462C18.6918 61.3446 18.6003 61.3438 18.5249 61.3438V62.5378C18.5249 62.5811 18.5361 62.6148 18.5586 62.6389C18.581 62.6614 18.6139 62.6758 18.6573 62.6822L19.0617 62.7545ZM22.8787 61.2884C22.9927 61.2884 23.1018 61.2724 23.2061 61.2403C23.312 61.2066 23.4043 61.1512 23.4829 61.0742C23.5632 60.9971 23.6266 60.8936 23.6731 60.7636C23.7213 60.632 23.7453 60.4692 23.7453 60.275C23.7453 59.9845 23.6739 59.7783 23.5311 59.6563C23.3882 59.5327 23.1716 59.4709 22.8811 59.4709C22.7704 59.4709 22.6781 59.4758 22.6043 59.4854C22.5321 59.4934 22.4671 59.4982 22.4093 59.4998V61.2716C22.4879 61.2764 22.5618 61.2804 22.6308 61.2836C22.7014 61.2868 22.784 61.2884 22.8787 61.2884ZM23.1146 62.7545V63H21.3621V62.7545L21.7521 62.6846C21.7906 62.6782 21.8203 62.6622 21.8412 62.6365C21.862 62.6108 21.8725 62.5795 21.8725 62.5426V59.7069C21.8725 59.6764 21.8628 59.6475 21.8436 59.6202C21.8243 59.5929 21.7986 59.5761 21.7665 59.5696L21.3621 59.4902V59.2398H22.1445C22.2183 59.2398 22.2849 59.2382 22.3443 59.235C22.4053 59.2318 22.4663 59.2278 22.5272 59.223C22.5898 59.2182 22.658 59.2142 22.7319 59.211C22.8073 59.2077 22.8972 59.2061 23.0015 59.2061C23.2486 59.2061 23.4565 59.2302 23.625 59.2784C23.7935 59.3265 23.9275 59.3955 24.027 59.4854C24.1281 59.5753 24.1995 59.6868 24.2412 59.82C24.2846 59.9532 24.3062 60.1032 24.3062 60.2702C24.3062 60.4724 24.2709 60.6545 24.2003 60.8166C24.1297 60.9771 24.031 61.1127 23.9042 61.2234C23.779 61.3326 23.6282 61.416 23.4516 61.4738C23.2767 61.5316 23.0857 61.5605 22.8787 61.5605C22.8001 61.5605 22.7214 61.5588 22.6428 61.5556C22.5658 61.5508 22.4879 61.5468 22.4093 61.5436V62.5426C22.4093 62.5779 22.4197 62.6084 22.4406 62.6341C22.4631 62.6582 22.4919 62.6718 22.5272 62.675L23.1146 62.7545ZM25.9333 59.5022V61.0718C25.9863 61.075 26.0441 61.0774 26.1066 61.079C26.1692 61.0806 26.2294 61.0814 26.2872 61.0814C26.345 61.0814 26.3979 61.0814 26.4461 61.0814C26.4958 61.0814 26.5335 61.0814 26.5592 61.0814C26.763 61.0798 26.9291 61.0108 27.0575 60.8744C27.1875 60.738 27.2525 60.5245 27.2525 60.234C27.2525 59.9917 27.1915 59.8039 27.0696 59.6707C26.9492 59.5375 26.7253 59.4709 26.3979 59.4709C26.3032 59.4709 26.2126 59.475 26.1259 59.483C26.0409 59.491 25.9767 59.4974 25.9333 59.5022ZM26.4701 62.7545V63H24.8886V62.7545L25.2689 62.6822C25.309 62.6742 25.3403 62.659 25.3628 62.6365C25.3869 62.6124 25.3989 62.5787 25.3989 62.5354V59.7141C25.3989 59.6723 25.3877 59.6394 25.3652 59.6154C25.3427 59.5897 25.3114 59.5728 25.2713 59.5648L24.8886 59.4902V59.2398H25.6661C25.8057 59.2398 25.9373 59.2342 26.0609 59.223C26.1845 59.2102 26.3265 59.2037 26.487 59.2037C26.9685 59.2037 27.3119 59.2864 27.5173 59.4517C27.7227 59.6154 27.8254 59.8649 27.8254 60.2003C27.8254 60.3865 27.7982 60.5438 27.7436 60.6722C27.6906 60.799 27.624 60.9033 27.5438 60.9851C27.4635 61.0654 27.3753 61.1271 27.279 61.1705C27.1843 61.2138 27.0952 61.2459 27.0118 61.2668C27.1017 61.3261 27.1811 61.4008 27.2501 61.4906C27.3191 61.5805 27.3881 61.692 27.4571 61.8253L27.8182 62.521C27.8487 62.5803 27.8784 62.6213 27.9073 62.6437C27.9362 62.6662 27.9779 62.683 28.0325 62.6943L28.2997 62.7545V63H27.5558C27.482 63 27.413 62.947 27.3488 62.8411C27.2862 62.7352 27.2132 62.594 27.1297 62.4174L26.889 61.9047C26.8328 61.7859 26.7767 61.6776 26.7205 61.5797C26.6643 61.4818 26.6082 61.404 26.552 61.3462C26.4316 61.3462 26.3169 61.3462 26.2078 61.3462C26.1002 61.3446 26.0088 61.3438 25.9333 61.3438V62.5378C25.9333 62.5811 25.9446 62.6148 25.967 62.6389C25.9895 62.6614 26.0224 62.6758 26.0657 62.6822L26.4701 62.7545ZM30.3257 59.2398V59.4902L29.9429 59.5648C29.9028 59.5728 29.8715 59.5897 29.849 59.6154C29.8282 59.6411 29.8177 59.6748 29.8177 59.7165V62.533C29.8177 62.5747 29.8282 62.6084 29.849 62.6341C29.8699 62.6598 29.9012 62.6766 29.9429 62.6846L30.3257 62.7545V63H28.7706V62.7545L29.1557 62.6846C29.1975 62.6766 29.2288 62.6598 29.2496 62.6341C29.2705 62.6084 29.2809 62.5747 29.2809 62.533V59.7165C29.2809 59.6764 29.2697 59.6435 29.2472 59.6178C29.2264 59.5905 29.1959 59.5728 29.1557 59.5648L28.7706 59.4902V59.2398H30.3257ZM33.5388 61.9986C33.5388 62.1318 33.5131 62.2634 33.4617 62.3934C33.4104 62.5234 33.3317 62.6389 33.2258 62.74C33.1199 62.8411 32.9843 62.923 32.819 62.9856C32.6537 63.0481 32.4579 63.0794 32.2316 63.0794C31.9781 63.0794 31.7494 63.0465 31.5456 62.9807C31.3417 62.9133 31.1772 62.8419 31.0521 62.7665C31.0456 62.6124 31.0464 62.456 31.0545 62.2971C31.0625 62.1366 31.0769 61.9793 31.0978 61.8253H31.418L31.507 62.3886C31.5119 62.4142 31.5199 62.4415 31.5311 62.4704C31.5439 62.4993 31.5648 62.5282 31.5937 62.5571C31.6563 62.6213 31.7478 62.6798 31.8681 62.7328C31.9885 62.7858 32.1233 62.8122 32.2725 62.8122C32.5069 62.8122 32.685 62.7545 32.807 62.6389C32.9305 62.5218 32.9923 62.3645 32.9923 62.1671C32.9923 62.0515 32.9715 61.952 32.9297 61.8686C32.888 61.7851 32.8302 61.7113 32.7564 61.6471C32.6826 61.5829 32.5927 61.5235 32.4868 61.469C32.3825 61.4144 32.2669 61.3582 32.1401 61.3005C32.023 61.2459 31.9034 61.1865 31.7815 61.1223C31.6595 61.0581 31.5496 60.9827 31.4517 60.896C31.3538 60.8094 31.2727 60.7067 31.2085 60.5879C31.1459 60.4675 31.1147 60.3263 31.1147 60.1642C31.1147 60.0214 31.1411 59.8898 31.1941 59.7694C31.2471 59.6475 31.3249 59.5432 31.4276 59.4565C31.5303 59.3682 31.6587 59.2992 31.8128 59.2495C31.9668 59.1997 32.145 59.1748 32.3472 59.1748C32.5221 59.1748 32.6986 59.1933 32.8768 59.2302C33.0565 59.2655 33.209 59.3137 33.3342 59.3746C33.3454 59.5335 33.347 59.6876 33.339 59.8368C33.3326 59.9845 33.3189 60.1281 33.298 60.2677H32.9899L32.896 59.7743C32.8896 59.7438 32.8784 59.7141 32.8623 59.6852C32.8479 59.6547 32.8246 59.6266 32.7925 59.6009C32.7428 59.5576 32.6697 59.5199 32.5735 59.4878C32.4772 59.4541 32.3729 59.4372 32.2605 59.4372C32.0519 59.4372 31.893 59.487 31.7839 59.5865C31.6747 59.6844 31.6202 59.8224 31.6202 60.0005C31.6202 60.1097 31.6394 60.2036 31.678 60.2822C31.7181 60.3592 31.7758 60.4298 31.8513 60.494C31.9267 60.5566 32.019 60.6168 32.1281 60.6746C32.2388 60.7323 32.3648 60.7949 32.5061 60.8623C32.636 60.9233 32.7628 60.9891 32.8864 61.0597C33.0116 61.1287 33.1215 61.2074 33.2162 61.2957C33.3125 61.3839 33.3903 61.4858 33.4497 61.6014C33.5091 61.7153 33.5388 61.8477 33.5388 61.9986ZM36.868 60.1642H36.6008L36.4901 59.7093C36.4805 59.6723 36.4644 59.6435 36.442 59.6226C36.4195 59.6001 36.389 59.5817 36.3505 59.5672C36.2959 59.5464 36.2245 59.5319 36.1362 59.5239C36.0496 59.5143 35.9541 59.5095 35.8498 59.5095H35.248V60.9249L36.4203 60.884V61.2547L35.248 61.2234V62.7063H35.987C36.0913 62.7063 36.1916 62.7023 36.2879 62.6943C36.3858 62.6863 36.462 62.6718 36.5166 62.6509C36.5535 62.6365 36.5816 62.618 36.6008 62.5956C36.6217 62.5731 36.6386 62.5442 36.6514 62.5089L36.8319 61.9841L37.0967 62.0226C37.0951 62.1783 37.0855 62.3388 37.0679 62.5041C37.0502 62.6694 37.0261 62.8347 36.9956 63H34.2008V62.7545L34.586 62.6846C34.6277 62.6766 34.659 62.6598 34.6798 62.6341C34.7007 62.6084 34.7111 62.5747 34.7111 62.533V59.7165C34.7111 59.6764 34.6999 59.6435 34.6774 59.6178C34.6566 59.5905 34.6261 59.5728 34.586 59.5648L34.2008 59.4902V59.2398H36.8729C36.8857 59.3891 36.8913 59.5399 36.8897 59.6924C36.8897 59.8449 36.8825 60.0021 36.868 60.1642ZM40.2684 61.9986C40.2684 62.1318 40.2427 62.2634 40.1914 62.3934C40.14 62.5234 40.0614 62.6389 39.9555 62.74C39.8496 62.8411 39.7139 62.923 39.5486 62.9856C39.3833 63.0481 39.1876 63.0794 38.9613 63.0794C38.7077 63.0794 38.479 63.0465 38.2752 62.9807C38.0714 62.9133 37.9069 62.8419 37.7817 62.7665C37.7753 62.6124 37.7761 62.456 37.7841 62.2971C37.7921 62.1366 37.8066 61.9793 37.8274 61.8253H38.1476L38.2367 62.3886C38.2415 62.4142 38.2495 62.4415 38.2608 62.4704C38.2736 62.4993 38.2945 62.5282 38.3233 62.5571C38.3859 62.6213 38.4774 62.6798 38.5978 62.7328C38.7181 62.7858 38.8529 62.8122 39.0022 62.8122C39.2365 62.8122 39.4146 62.7545 39.5366 62.6389C39.6602 62.5218 39.722 62.3645 39.722 62.1671C39.722 62.0515 39.7011 61.952 39.6594 61.8686C39.6177 61.7851 39.5599 61.7113 39.4861 61.6471C39.4122 61.5829 39.3224 61.5235 39.2164 61.469C39.1121 61.4144 38.9966 61.3582 38.8698 61.3005C38.7526 61.2459 38.6331 61.1865 38.5111 61.1223C38.3891 61.0581 38.2792 60.9827 38.1813 60.896C38.0834 60.8094 38.0024 60.7067 37.9382 60.5879C37.8756 60.4675 37.8443 60.3263 37.8443 60.1642C37.8443 60.0214 37.8708 59.8898 37.9237 59.7694C37.9767 59.6475 38.0545 59.5432 38.1572 59.4565C38.2599 59.3682 38.3883 59.2992 38.5424 59.2495C38.6965 59.1997 38.8746 59.1748 39.0768 59.1748C39.2517 59.1748 39.4283 59.1933 39.6064 59.2302C39.7862 59.2655 39.9386 59.3137 40.0638 59.3746C40.075 59.5335 40.0766 59.6876 40.0686 59.8368C40.0622 59.9845 40.0486 60.1281 40.0277 60.2677H39.7196L39.6257 59.7743C39.6193 59.7438 39.608 59.7141 39.592 59.6852C39.5775 59.6547 39.5543 59.6266 39.5222 59.6009C39.4724 59.5576 39.3994 59.5199 39.3031 59.4878C39.2068 59.4541 39.1025 59.4372 38.9902 59.4372C38.7815 59.4372 38.6226 59.487 38.5135 59.5865C38.4044 59.6844 38.3498 59.8224 38.3498 60.0005C38.3498 60.1097 38.3691 60.2036 38.4076 60.2822C38.4477 60.3592 38.5055 60.4298 38.5809 60.494C38.6563 60.5566 38.7486 60.6168 38.8578 60.6746C38.9685 60.7323 39.0945 60.7949 39.2357 60.8623C39.3657 60.9233 39.4925 60.9891 39.616 61.0597C39.7412 61.1287 39.8512 61.2074 39.9458 61.2957C40.0421 61.3839 40.12 61.4858 40.1793 61.6014C40.2387 61.7153 40.2684 61.8477 40.2684 61.9986ZM44.0081 61.2884C44.1221 61.2884 44.2312 61.2724 44.3355 61.2403C44.4415 61.2066 44.5337 61.1512 44.6124 61.0742C44.6926 60.9971 44.756 60.8936 44.8025 60.7636C44.8507 60.632 44.8748 60.4692 44.8748 60.275C44.8748 59.9845 44.8033 59.7783 44.6605 59.6563C44.5177 59.5327 44.301 59.4709 44.0106 59.4709C43.8998 59.4709 43.8075 59.4758 43.7337 59.4854C43.6615 59.4934 43.5965 59.4982 43.5387 59.4998V61.2716C43.6174 61.2764 43.6912 61.2804 43.7602 61.2836C43.8308 61.2868 43.9135 61.2884 44.0081 61.2884ZM44.2441 62.7545V63H42.4916V62.7545L42.8815 62.6846C42.9201 62.6782 42.9497 62.6622 42.9706 62.6365C42.9915 62.6108 43.0019 62.5795 43.0019 62.5426V59.7069C43.0019 59.6764 42.9923 59.6475 42.973 59.6202C42.9538 59.5929 42.9281 59.5761 42.896 59.5696L42.4916 59.4902V59.2398H43.2739C43.3478 59.2398 43.4144 59.2382 43.4737 59.235C43.5347 59.2318 43.5957 59.2278 43.6567 59.223C43.7193 59.2182 43.7875 59.2142 43.8613 59.211C43.9367 59.2077 44.0266 59.2061 44.1309 59.2061C44.3781 59.2061 44.5859 59.2302 44.7544 59.2784C44.9229 59.3265 45.0569 59.3955 45.1564 59.4854C45.2575 59.5753 45.3289 59.6868 45.3707 59.82C45.414 59.9532 45.4357 60.1032 45.4357 60.2702C45.4357 60.4724 45.4004 60.6545 45.3297 60.8166C45.2591 60.9771 45.1604 61.1127 45.0336 61.2234C44.9085 61.3326 44.7576 61.416 44.5811 61.4738C44.4061 61.5316 44.2152 61.5605 44.0081 61.5605C43.9295 61.5605 43.8509 61.5588 43.7722 61.5556C43.6952 61.5508 43.6174 61.5468 43.5387 61.5436V62.5426C43.5387 62.5779 43.5492 62.6084 43.57 62.6341C43.5925 62.6582 43.6214 62.6718 43.6567 62.675L44.2441 62.7545ZM47.0628 59.5022V61.0718C47.1157 61.075 47.1735 61.0774 47.2361 61.079C47.2987 61.0806 47.3589 61.0814 47.4166 61.0814C47.4744 61.0814 47.5274 61.0814 47.5755 61.0814C47.6253 61.0814 47.663 61.0814 47.6887 61.0814C47.8925 61.0798 48.0586 61.0108 48.187 60.8744C48.317 60.738 48.3819 60.5245 48.3819 60.234C48.3819 59.9917 48.321 59.8039 48.199 59.6707C48.0786 59.5375 47.8548 59.4709 47.5274 59.4709C47.4327 59.4709 47.342 59.475 47.2553 59.483C47.1703 59.491 47.1061 59.4974 47.0628 59.5022ZM47.5996 62.7545V63H46.018V62.7545L46.3984 62.6822C46.4385 62.6742 46.4698 62.659 46.4922 62.6365C46.5163 62.6124 46.5283 62.5787 46.5283 62.5354V59.7141C46.5283 59.6723 46.5171 59.6394 46.4946 59.6154C46.4722 59.5897 46.4409 59.5728 46.4008 59.5648L46.018 59.4902V59.2398H46.7956C46.9352 59.2398 47.0668 59.2342 47.1903 59.223C47.3139 59.2102 47.456 59.2037 47.6164 59.2037C48.0979 59.2037 48.4413 59.2864 48.6467 59.4517C48.8522 59.6154 48.9549 59.8649 48.9549 60.2003C48.9549 60.3865 48.9276 60.5438 48.873 60.6722C48.8201 60.799 48.7535 60.9033 48.6732 60.9851C48.593 61.0654 48.5047 61.1271 48.4084 61.1705C48.3137 61.2138 48.2247 61.2459 48.1412 61.2668C48.2311 61.3261 48.3105 61.4008 48.3795 61.4906C48.4486 61.5805 48.5176 61.692 48.5866 61.8253L48.9477 62.521C48.9782 62.5803 49.0078 62.6213 49.0367 62.6437C49.0656 62.6662 49.1073 62.683 49.1619 62.6943L49.4291 62.7545V63H48.6853C48.6114 63 48.5424 62.947 48.4782 62.8411C48.4157 62.7352 48.3426 62.594 48.2592 62.4174L48.0185 61.9047C47.9623 61.7859 47.9061 61.6776 47.8499 61.5797C47.7938 61.4818 47.7376 61.404 47.6814 61.3462C47.5611 61.3462 47.4463 61.3462 47.3372 61.3462C47.2297 61.3446 47.1382 61.3438 47.0628 61.3438V62.5378C47.0628 62.5811 47.074 62.6148 47.0965 62.6389C47.1189 62.6614 47.1518 62.6758 47.1952 62.6822L47.5996 62.7545ZM51.4551 59.2398V59.4902L51.0724 59.5648C51.0322 59.5728 51.0009 59.5897 50.9785 59.6154C50.9576 59.6411 50.9472 59.6748 50.9472 59.7165V62.533C50.9472 62.5747 50.9576 62.6084 50.9785 62.6341C50.9993 62.6598 51.0306 62.6766 51.0724 62.6846L51.4551 62.7545V63H49.9V62.7545L50.2852 62.6846C50.3269 62.6766 50.3582 62.6598 50.3791 62.6341C50.3999 62.6084 50.4104 62.5747 50.4104 62.533V59.7165C50.4104 59.6764 50.3991 59.6435 50.3767 59.6178C50.3558 59.5905 50.3253 59.5728 50.2852 59.5648L49.9 59.4902V59.2398H51.4551ZM53.9894 63.012H53.5007L52.2489 59.6924C52.2361 59.6571 52.2176 59.6298 52.1935 59.6106C52.1711 59.5913 52.1422 59.5761 52.1069 59.5648L51.83 59.4902V59.2398H53.2792V59.4902L52.7833 59.5865L53.8353 62.4704L54.7741 59.5865L54.2806 59.4902V59.2398H55.5493V59.4902L55.258 59.5648C55.2227 59.5761 55.1922 59.5913 55.1665 59.6106C55.1424 59.6298 55.1248 59.6571 55.1136 59.6924L53.9894 63.012ZM58.0918 61.558L57.4515 59.7141L56.8448 61.558H58.0918ZM56.958 62.7545V63H55.7062V62.7545L55.9999 62.6846C56.0352 62.6766 56.0649 62.6622 56.089 62.6413C56.1146 62.6205 56.1331 62.5924 56.1443 62.5571L57.2926 59.2278H57.8077L59.0042 62.5571C59.017 62.5924 59.0355 62.6205 59.0595 62.6413C59.0836 62.6606 59.1133 62.675 59.1486 62.6846L59.4254 62.7545V63H58.0003V62.7545L58.477 62.6678L58.1929 61.8517H56.7485L56.4813 62.6678L56.958 62.7545ZM62.0502 63H60.1292V62.7545L60.6925 62.6678C60.7358 62.6614 60.7679 62.6461 60.7888 62.6221C60.8112 62.598 60.8225 62.5651 60.8225 62.5234V59.5095H60.5384C60.4325 59.5095 60.3354 59.5151 60.2471 59.5263C60.1589 59.5359 60.0923 59.5488 60.0473 59.5648C60.0104 59.5777 59.9815 59.5953 59.9607 59.6178C59.9398 59.6386 59.9246 59.6683 59.9149 59.7069L59.7585 60.3881H59.4696C59.4535 60.1827 59.4479 59.9877 59.4527 59.8031C59.4592 59.6186 59.4736 59.4308 59.4961 59.2398H62.6929C62.7138 59.4308 62.725 59.6194 62.7266 59.8055C62.7282 59.9917 62.721 60.1859 62.705 60.3881H62.4161L62.262 59.7069C62.254 59.6683 62.2396 59.6386 62.2187 59.6178C62.1978 59.5953 62.1697 59.5777 62.1344 59.5648C62.0863 59.5472 62.0205 59.5335 61.937 59.5239C61.8552 59.5143 61.7589 59.5095 61.6482 59.5095H61.3569V62.5234C61.3569 62.5651 61.3681 62.598 61.3906 62.6221C61.4131 62.6461 61.4452 62.6614 61.4869 62.6678L62.0502 62.7545V63ZM65.9684 60.1642H65.7012L65.5904 59.7093C65.5808 59.6723 65.5648 59.6435 65.5423 59.6226C65.5198 59.6001 65.4893 59.5817 65.4508 59.5672C65.3962 59.5464 65.3248 59.5319 65.2366 59.5239C65.1499 59.5143 65.0544 59.5095 64.9501 59.5095H64.3483V60.9249L65.5206 60.884V61.2547L64.3483 61.2234V62.7063H65.0873C65.1916 62.7063 65.2919 62.7023 65.3882 62.6943C65.4861 62.6863 65.5624 62.6718 65.6169 62.6509C65.6538 62.6365 65.6819 62.618 65.7012 62.5956C65.722 62.5731 65.7389 62.5442 65.7517 62.5089L65.9323 61.9841L66.1971 62.0226C66.1955 62.1783 66.1858 62.3388 66.1682 62.5041C66.1505 62.6694 66.1265 62.8347 66.096 63H63.3011V62.7545L63.6863 62.6846C63.728 62.6766 63.7593 62.6598 63.7802 62.6341C63.801 62.6084 63.8115 62.5747 63.8115 62.533V59.7165C63.8115 59.6764 63.8002 59.6435 63.7778 59.6178C63.7569 59.5905 63.7264 59.5728 63.6863 59.5648L63.3011 59.4902V59.2398H65.9732C65.986 59.3891 65.9916 59.5399 65.99 59.6924C65.99 59.8449 65.9828 60.0021 65.9684 60.1642ZM70.7758 62.5041L70.9828 61.8493L71.2597 61.8902C71.2565 62.0604 71.2468 62.2441 71.2308 62.4415C71.2163 62.6389 71.1915 62.8251 71.1562 63H68.3758V62.7545L68.7609 62.6871C68.8027 62.6806 68.8339 62.6646 68.8548 62.6389C68.8757 62.6116 68.8861 62.5779 68.8861 62.5378V59.7141C68.8861 59.6723 68.8757 59.6386 68.8548 59.613C68.8339 59.5873 68.8027 59.5704 68.7609 59.5624L68.3758 59.4902V59.2398H70.0488V59.4902L69.5481 59.5672C69.5064 59.5736 69.4743 59.5897 69.4518 59.6154C69.431 59.6411 69.4205 59.6748 69.4205 59.7165V62.7063H70.1066C70.2189 62.7063 70.3208 62.7015 70.4123 62.6919C70.5054 62.6822 70.58 62.667 70.6362 62.6461C70.6731 62.6333 70.7028 62.6156 70.7253 62.5932C70.7477 62.5707 70.7646 62.541 70.7758 62.5041ZM73.3539 59.2398V59.4902L72.9711 59.5648C72.931 59.5728 72.8997 59.5897 72.8772 59.6154C72.8564 59.6411 72.8459 59.6748 72.8459 59.7165V62.533C72.8459 62.5747 72.8564 62.6084 72.8772 62.6341C72.8981 62.6598 72.9294 62.6766 72.9711 62.6846L73.3539 62.7545V63H71.7988V62.7545L72.1839 62.6846C72.2257 62.6766 72.257 62.6598 72.2778 62.6341C72.2987 62.6084 72.3091 62.5747 72.3091 62.533V59.7165C72.3091 59.6764 72.2979 59.6435 72.2754 59.6178C72.2545 59.5905 72.2241 59.5728 72.1839 59.5648L71.7988 59.4902V59.2398H73.3539ZM75.243 62.7545V63H73.9021V62.7545L74.2632 62.6846C74.3033 62.6782 74.3338 62.663 74.3547 62.6389C74.3772 62.6132 74.3908 62.5803 74.3956 62.5402L74.735 59.7237C74.7415 59.6804 74.7342 59.6451 74.7134 59.6178C74.6941 59.5889 74.6628 59.5712 74.6195 59.5648L74.1838 59.4902V59.2398H75.4909L76.3985 62.0539L77.1977 59.2398H78.5096V59.4902L78.0691 59.5648C78.0242 59.5728 77.9921 59.5913 77.9728 59.6202C77.9552 59.6475 77.9495 59.6836 77.956 59.7285L78.4037 62.5426C78.4085 62.5811 78.4222 62.6132 78.4446 62.6389C78.4687 62.663 78.4992 62.6782 78.5361 62.6846L78.8948 62.7545V63H77.4312V62.7545L77.8813 62.675L77.4143 59.7165L76.5212 62.8411H76.1361L75.0889 59.7141L74.7471 62.675L75.243 62.7545ZM80.9498 59.2398V59.4902L80.567 59.5648C80.5269 59.5728 80.4956 59.5897 80.4732 59.6154C80.4523 59.6411 80.4419 59.6748 80.4419 59.7165V62.533C80.4419 62.5747 80.4523 62.6084 80.4732 62.6341C80.494 62.6598 80.5253 62.6766 80.567 62.6846L80.9498 62.7545V63H79.3947V62.7545L79.7799 62.6846C79.8216 62.6766 79.8529 62.6598 79.8737 62.6341C79.8946 62.6084 79.905 62.5747 79.905 62.533V59.7165C79.905 59.6764 79.8938 59.6435 79.8713 59.6178C79.8505 59.5905 79.82 59.5728 79.7799 59.5648L79.3947 59.4902V59.2398H80.9498ZM84.1364 63H82.2154V62.7545L82.7787 62.6678C82.822 62.6614 82.8541 62.6461 82.875 62.6221C82.8975 62.598 82.9087 62.5651 82.9087 62.5234V59.5095H82.6247C82.5187 59.5095 82.4216 59.5151 82.3334 59.5263C82.2451 59.5359 82.1785 59.5488 82.1336 59.5648C82.0967 59.5777 82.0678 59.5953 82.0469 59.6178C82.026 59.6386 82.0108 59.6683 82.0012 59.7069L81.8447 60.3881H81.5558C81.5398 60.1827 81.5342 59.9877 81.539 59.8031C81.5454 59.6186 81.5598 59.4308 81.5823 59.2398H84.7792C84.8 59.4308 84.8113 59.6194 84.8129 59.8055C84.8145 59.9917 84.8072 60.1859 84.7912 60.3881H84.5023L84.3483 59.7069C84.3402 59.6683 84.3258 59.6386 84.3049 59.6178C84.2841 59.5953 84.256 59.5777 84.2207 59.5648C84.1725 59.5472 84.1067 59.5335 84.0233 59.5239C83.9414 59.5143 83.8451 59.5095 83.7344 59.5095H83.4431V62.5234C83.4431 62.5651 83.4544 62.598 83.4768 62.6221C83.4993 62.6461 83.5314 62.6614 83.5731 62.6678L84.1364 62.7545V63ZM88.0546 60.1642H87.7874L87.6767 59.7093C87.667 59.6723 87.651 59.6435 87.6285 59.6226C87.6061 59.6001 87.5756 59.5817 87.537 59.5672C87.4825 59.5464 87.4111 59.5319 87.3228 59.5239C87.2361 59.5143 87.1407 59.5095 87.0363 59.5095H86.4345V60.9249L87.6069 60.884V61.2547L86.4345 61.2234V62.7063H87.1736C87.2779 62.7063 87.3782 62.7023 87.4745 62.6943C87.5724 62.6863 87.6486 62.6718 87.7032 62.6509C87.7401 62.6365 87.7681 62.618 87.7874 62.5956C87.8083 62.5731 87.8251 62.5442 87.838 62.5089L88.0185 61.9841L88.2833 62.0226C88.2817 62.1783 88.2721 62.3388 88.2544 62.5041C88.2368 62.6694 88.2127 62.8347 88.1822 63H85.3874V62.7545L85.7725 62.6846C85.8142 62.6766 85.8455 62.6598 85.8664 62.6341C85.8873 62.6084 85.8977 62.5747 85.8977 62.533V59.7165C85.8977 59.6764 85.8865 59.6435 85.864 59.6178C85.8431 59.5905 85.8126 59.5728 85.7725 59.5648L85.3874 59.4902V59.2398H88.0594C88.0723 59.3891 88.0779 59.5399 88.0763 59.6924C88.0763 59.8449 88.0691 60.0021 88.0546 60.1642ZM89.6736 59.2398C89.8293 59.2398 89.9769 59.2342 90.1165 59.223C90.2562 59.2102 90.4006 59.2037 90.5498 59.2037C91.1693 59.2037 91.6259 59.3586 91.9196 59.6683C92.2133 59.9765 92.3601 60.4242 92.3601 61.0116C92.3601 61.3454 92.316 61.6407 92.2277 61.8975C92.1395 62.1526 92.0143 62.3653 91.8522 62.5354C91.6901 62.7055 91.4927 62.8331 91.26 62.9182C91.0273 63.0032 90.7681 63.0425 90.4824 63.0361C90.3765 63.0345 90.2489 63.0281 90.0997 63.0169C89.9504 63.0056 89.8108 63 89.6808 63H88.9009V62.7545L89.2884 62.6846C89.3286 62.6782 89.3591 62.6622 89.3799 62.6365C89.4008 62.6108 89.4112 62.5795 89.4112 62.5426V59.6996C89.4112 59.6675 89.4016 59.6394 89.3823 59.6154C89.3631 59.5913 89.3374 59.5761 89.3053 59.5696L88.9009 59.4902V59.2398H89.6736ZM89.948 62.7208C90.017 62.7352 90.1085 62.7464 90.2225 62.7545C90.338 62.7609 90.4407 62.7633 90.5306 62.7617C90.9286 62.7504 91.2367 62.6156 91.455 62.3573C91.6732 62.0973 91.7824 61.6784 91.7824 61.1007C91.7824 60.5438 91.6708 60.1337 91.4478 59.8705C91.2263 59.6057 90.8885 59.4733 90.4343 59.4733C90.3316 59.4733 90.2377 59.4782 90.1526 59.4878C90.0692 59.4974 90.001 59.5038 89.948 59.507V62.7208Z" fill="white"/>
</g>
</g>
<defs>
<filter id="filter0_d" x="0.810484" y="14.2499" width="58.0739" height="44.7892" filterUnits="userSpaceOnUse" color-interpolation-filters="sRGB">
<feFlood flood-opacity="0" result="BackgroundImageFix"/>
<feColorMatrix in="SourceAlpha" type="matrix" values="0 0 0 0 0 0 0 0 0 0 0 0 0 0 0 0 0 0 127 0"/>
<feOffset dx="1.23377" dy="0.616883"/>
<feGaussianBlur stdDeviation="1.23377"/>
<feColorMatrix type="matrix" values="0 0 0 0 0 0 0 0 0 0 0 0 0 0 0 0 0 0 1 0"/>
<feBlend mode="normal" in2="BackgroundImageFix" result="effect1_dropShadow"/>
<feBlend mode="normal" in="SourceGraphic" in2="effect1_dropShadow" result="shape"/>
</filter>
<filter id="filter1_d" x="23.3745" y="3.48859" width="43.4425" height="19.5789" filterUnits="userSpaceOnUse" color-interpolation-filters="sRGB">
<feFlood flood-opacity="0" result="BackgroundImageFix"/>
<feColorMatrix in="SourceAlpha" type="matrix" values="0 0 0 0 0 0 0 0 0 0 0 0 0 0 0 0 0 0 127 0"/>
<feOffset dx="0.616883" dy="2.46753"/>
<feGaussianBlur stdDeviation="1.54221"/>
<feColorMatrix type="matrix" values="0 0 0 0 0 0 0 0 0 0 0 0 0 0 0 0 0 0 0.79 0"/>
<feBlend mode="normal" in2="BackgroundImageFix" result="effect1_dropShadow"/>
<feBlend mode="normal" in="SourceGraphic" in2="effect1_dropShadow" result="shape"/>
</filter>
<filter id="filter2_i" x="31.1942" y="14.3799" width="29.7147" height="10.3654" filterUnits="userSpaceOnUse" color-interpolation-filters="sRGB">
<feFlood flood-opacity="0" result="BackgroundImageFix"/>
<feBlend mode="normal" in="SourceGraphic" in2="BackgroundImageFix" result="shape"/>
<feColorMatrix in="SourceAlpha" type="matrix" values="0 0 0 0 0 0 0 0 0 0 0 0 0 0 0 0 0 0 127 0" result="hardAlpha"/>
<feOffset dx="1.23377" dy="0.616883"/>
<feGaussianBlur stdDeviation="1.54221"/>
<feComposite in2="hardAlpha" operator="arithmetic" k2="-1" k3="1"/>
<feColorMatrix type="matrix" values="0 0 0 0 0 0 0 0 0 0 0 0 0 0 0 0 0 0 1 0"/>
<feBlend mode="normal" in2="shape" result="effect1_innerShadow"/>
</filter>
<filter id="filter3_d" x="71.4373" y="16.3956" width="24.7121" height="22.1296" filterUnits="userSpaceOnUse" color-interpolation-filters="sRGB">
<feFlood flood-opacity="0" result="BackgroundImageFix"/>
<feColorMatrix in="SourceAlpha" type="matrix" values="0 0 0 0 0 0 0 0 0 0 0 0 0 0 0 0 0 0 127 0"/>
<feOffset dx="1.85065" dy="1.85065"/>
<feGaussianBlur stdDeviation="1.54221"/>
<feColorMatrix type="matrix" values="0 0 0 0 0 0 0 0 0 0 0 0 0 0 0 0 0 0 1 0"/>
<feBlend mode="normal" in2="BackgroundImageFix" result="effect1_dropShadow"/>
<feBlend mode="normal" in="SourceGraphic" in2="effect1_dropShadow" result="shape"/>
</filter>
<filter id="filter4_d" x="64.4219" y="25.3409" width="20.1052" height="20.2027" filterUnits="userSpaceOnUse" color-interpolation-filters="sRGB">
<feFlood flood-opacity="0" result="BackgroundImageFix"/>
<feColorMatrix in="SourceAlpha" type="matrix" values="0 0 0 0 0 0 0 0 0 0 0 0 0 0 0 0 0 0 127 0"/>
<feOffset dx="1.85065" dy="1.85065"/>
<feGaussianBlur stdDeviation="1.54221"/>
<feColorMatrix type="matrix" values="0 0 0 0 0 0 0 0 0 0 0 0 0 0 0 0 0 0 1 0"/>
<feBlend mode="normal" in2="BackgroundImageFix" result="effect1_dropShadow"/>
<feBlend mode="normal" in="SourceGraphic" in2="effect1_dropShadow" result="shape"/>
</filter>
<filter id="filter5_d" x="9.52505" y="15.7787" width="21.1652" height="30.3402" filterUnits="userSpaceOnUse" color-interpolation-filters="sRGB">
<feFlood flood-opacity="0" result="BackgroundImageFix"/>
<feColorMatrix in="SourceAlpha" type="matrix" values="0 0 0 0 0 0 0 0 0 0 0 0 0 0 0 0 0 0 127 0"/>
<feOffset dy="1.85065"/>
<feGaussianBlur stdDeviation="1.85065"/>
<feColorMatrix type="matrix" values="0 0 0 0 0 0 0 0 0 0 0 0 0 0 0 0 0 0 1 0"/>
<feBlend mode="normal" in2="BackgroundImageFix" result="effect1_dropShadow"/>
<feBlend mode="normal" in="SourceGraphic" in2="effect1_dropShadow" result="shape"/>
</filter>
<filter id="filter6_d" x="53.3759" y="15.1619" width="16.4821" height="44.0072" filterUnits="userSpaceOnUse" color-interpolation-filters="sRGB">
<feFlood flood-opacity="0" result="BackgroundImageFix"/>
<feColorMatrix in="SourceAlpha" type="matrix" values="0 0 0 0 0 0 0 0 0 0 0 0 0 0 0 0 0 0 127 0"/>
<feOffset dx="2.46753" dy="1.23377"/>
<feGaussianBlur stdDeviation="1.85065"/>
<feColorMatrix type="matrix" values="0 0 0 0 0 0 0 0 0 0 0 0 0 0 0 0 0 0 1 0"/>
<feBlend mode="normal" in2="BackgroundImageFix" result="effect1_dropShadow"/>
<feBlend mode="normal" in="SourceGraphic" in2="effect1_dropShadow" result="shape"/>
</filter>
<filter id="filter7_d" x="59.8428" y="13.3112" width="16.6956" height="23.2678" filterUnits="userSpaceOnUse" color-interpolation-filters="sRGB">
<feFlood flood-opacity="0" result="BackgroundImageFix"/>
<feColorMatrix in="SourceAlpha" type="matrix" values="0 0 0 0 0 0 0 0 0 0 0 0 0 0 0 0 0 0 127 0"/>
<feOffset dy="-0.616883"/>
<feGaussianBlur stdDeviation="1.85065"/>
<feColorMatrix type="matrix" values="0 0 0 0 0 0 0 0 0 0 0 0 0 0 0 0 0 0 1 0"/>
<feBlend mode="normal" in2="BackgroundImageFix" result="effect1_dropShadow"/>
<feBlend mode="normal" in="SourceGraphic" in2="effect1_dropShadow" result="shape"/>
</filter>
<filter id="filter8_d" x="80.1886" y="19.7498" width="16.6732" height="39.4197" filterUnits="userSpaceOnUse" color-interpolation-filters="sRGB">
<feFlood flood-opacity="0" result="BackgroundImageFix"/>
<feColorMatrix in="SourceAlpha" type="matrix" values="0 0 0 0 0 0 0 0 0 0 0 0 0 0 0 0 0 0 127 0"/>
<feOffset dx="1.85065" dy="1.23377"/>
<feGaussianBlur stdDeviation="1.85065"/>
<feColorMatrix type="matrix" values="0 0 0 0 0 0 0 0 0 0 0 0 0 0 0 0 0 0 1 0"/>
<feBlend mode="normal" in2="BackgroundImageFix" result="effect1_dropShadow"/>
<feBlend mode="normal" in="SourceGraphic" in2="effect1_dropShadow" result="shape"/>
</filter>
<filter id="filter9_d" x="40.0616" y="-0.850649" width="8.37571" height="8.37571" filterUnits="userSpaceOnUse" color-interpolation-filters="sRGB">
<feFlood flood-opacity="0" result="BackgroundImageFix"/>
<feColorMatrix in="SourceAlpha" type="matrix" values="0 0 0 0 0 0 0 0 0 0 0 0 0 0 0 0 0 0 127 0"/>
<feOffset dy="0.616883"/>
<feGaussianBlur stdDeviation="1.23377"/>
<feColorMatrix type="matrix" values="0 0 0 0 0 0 0 0 0 0 0 0 0 0 0 0 0 0 1 0"/>
<feBlend mode="normal" in2="BackgroundImageFix" result="effect1_dropShadow"/>
<feBlend mode="normal" in="SourceGraphic" in2="effect1_dropShadow" result="shape"/>
</filter>
<filter id="filter10_d" x="60.9262" y="7.41174" width="6.5685" height="6.5685" filterUnits="userSpaceOnUse" color-interpolation-filters="sRGB">
<feFlood flood-opacity="0" result="BackgroundImageFix"/>
<feColorMatrix in="SourceAlpha" type="matrix" values="0 0 0 0 0 0 0 0 0 0 0 0 0 0 0 0 0 0 127 0"/>
<feOffset dx="0.616883" dy="0.616883"/>
<feGaussianBlur stdDeviation="0.925325"/>
<feColorMatrix type="matrix" values="0 0 0 0 0 0 0 0 0 0 0 0 0 0 0 0 0 0 1 0"/>
<feBlend mode="normal" in2="BackgroundImageFix" result="effect1_dropShadow"/>
<feBlend mode="normal" in="SourceGraphic" in2="effect1_dropShadow" result="shape"/>
</filter>
<filter id="filter11_d" x="21.4196" y="6.94262" width="9.03603" height="9.03603" filterUnits="userSpaceOnUse" color-interpolation-filters="sRGB">
<feFlood flood-opacity="0" result="BackgroundImageFix"/>
<feColorMatrix in="SourceAlpha" type="matrix" values="0 0 0 0 0 0 0 0 0 0 0 0 0 0 0 0 0 0 127 0"/>
<feOffset dy="0.616883"/>
<feGaussianBlur stdDeviation="1.54221"/>
<feColorMatrix type="matrix" values="0 0 0 0 0 0 0 0 0 0 0 0 0 0 0 0 0 0 1 0"/>
<feBlend mode="normal" in2="BackgroundImageFix" result="effect1_dropShadow"/>
<feBlend mode="normal" in="SourceGraphic" in2="effect1_dropShadow" result="shape"/>
</filter>
<filter id="filter12_d" x="1.26239" y="58.1748" width="92.0977" height="5.9046" filterUnits="userSpaceOnUse" color-interpolation-filters="sRGB">
<feFlood flood-opacity="0" result="BackgroundImageFix"/>
<feColorMatrix in="SourceAlpha" type="matrix" values="0 0 0 0 0 0 0 0 0 0 0 0 0 0 0 0 0 0 127 0"/>
<feOffset/>
<feGaussianBlur stdDeviation="0.5"/>
<feColorMatrix type="matrix" values="0 0 0 0 0 0 0 0 0 0 0 0 0 0 0 0 0 0 0.85 0"/>
<feBlend mode="normal" in2="BackgroundImageFix" result="effect1_dropShadow"/>
<feBlend mode="normal" in="SourceGraphic" in2="effect1_dropShadow" result="shape"/>
</filter>
<linearGradient id="paint0_linear" x1="37.0241" y1="40.1849" x2="51.6469" y2="46.3972" gradientUnits="userSpaceOnUse">
<stop stop-color="#28313D"/>
<stop offset="1" stop-color="#E3E3E3" stop-opacity="0"/>
</linearGradient>
<radialGradient id="paint1_radial" cx="0" cy="0" r="1" gradientUnits="userSpaceOnUse" gradientTransform="translate(44.4789 10.8105) rotate(89.7226) scale(8.92255 24.8005)">
<stop stop-color="#D12828"/>
<stop offset="1" stop-color="#FF4E4E" stop-opacity="0.72"/>
</radialGradient>
<linearGradient id="paint2_linear" x1="72.673" y1="39.1335" x2="72.673" y2="32.539" gradientUnits="userSpaceOnUse">
<stop stop-color="#DFE5EA"/>
<stop offset="1" stop-color="#DFE5EA" stop-opacity="0"/>
</linearGradient>
<linearGradient id="paint3_linear" x1="22.4014" y1="42.6696" x2="27.8491" y2="50.6978" gradientUnits="userSpaceOnUse">
<stop stop-color="#5E5A5A"/>
<stop offset="1" stop-color="#C4C4C4"/>
</linearGradient>
<linearGradient id="paint4_linear" x1="8.54325" y1="17.725" x2="8.7344" y2="38.1777" gradientUnits="userSpaceOnUse">
<stop stop-color="#00A8CD"/>
<stop offset="0.506943" stop-color="#6A6B6C"/>
</linearGradient>
<linearGradient id="paint5_linear" x1="7.10965" y1="51.8446" x2="14.8511" y2="55.4764" gradientUnits="userSpaceOnUse">
<stop stop-color="#6A6B6C"/>
<stop offset="1" stop-color="#C4C4C4"/>
</linearGradient>
<linearGradient id="paint6_linear" x1="59.1016" y1="43.3387" x2="58.9583" y2="54.0429" gradientUnits="userSpaceOnUse">
<stop stop-color="#5E5555"/>
<stop offset="1" stop-color="#C4C4C4"/>
</linearGradient>
<linearGradient id="paint7_linear" x1="86.6268" y1="35.6931" x2="86.6268" y2="57.675" gradientUnits="userSpaceOnUse">
<stop stop-color="#5E5555"/>
<stop offset="1" stop-color="#5E5555" stop-opacity="0.46"/>
</linearGradient>
<linearGradient id="paint8_linear" x1="86.7223" y1="44.7723" x2="70.8571" y2="21.7391" gradientUnits="userSpaceOnUse">
<stop stop-color="#28313D"/>
<stop offset="1" stop-color="#E3E3E3" stop-opacity="0"/>
</linearGradient>
<clipPath id="clip0">
<rect width="95" height="66" fill="white"/>
</clipPath>
</defs>
</svg>
