<svg width="154" height="105" viewBox="0 0 154 105" fill="none" xmlns="http://www.w3.org/2000/svg">
<g clip-path="url(#clip0)">
<rect width="154" height="105" fill="#232F3E"/>
<g filter="url(#filter0_d)">
<path d="M6.868 97.288H6.424L6.24 96.532C6.224 96.4707 6.19733 96.4227 6.16 96.388C6.12267 96.3507 6.072 96.32 6.008 96.296C5.91733 96.2613 5.79867 96.2373 5.652 96.224C5.508 96.208 5.34933 96.2 5.176 96.2H4.176V98.552L6.124 98.484V99.1L4.176 99.048V101.512H5.404C5.57733 101.512 5.744 101.505 5.904 101.492C6.06667 101.479 6.19333 101.455 6.284 101.42C6.34533 101.396 6.392 101.365 6.424 101.328C6.45867 101.291 6.48667 101.243 6.508 101.184L6.808 100.312L7.248 100.376C7.24533 100.635 7.22933 100.901 7.2 101.176C7.17067 101.451 7.13067 101.725 7.08 102H2.436V101.592L3.076 101.476C3.14533 101.463 3.19733 101.435 3.232 101.392C3.26667 101.349 3.284 101.293 3.284 101.224V96.544C3.284 96.4773 3.26533 96.4227 3.228 96.38C3.19333 96.3347 3.14267 96.3053 3.076 96.292L2.436 96.168V95.752H6.876C6.89733 96 6.90667 96.2507 6.904 96.504C6.904 96.7573 6.892 97.0187 6.868 97.288ZM10.5242 101.592V102H8.16416V101.592L8.80416 101.476C8.8735 101.463 8.9255 101.435 8.96016 101.392C8.99483 101.349 9.01216 101.293 9.01216 101.224V96.544C9.01216 96.4773 8.9935 96.4227 8.95616 96.38C8.9215 96.3347 8.87083 96.3053 8.80416 96.292L8.16416 96.168V95.752H9.90416L13.1002 100.628V96.544C13.1002 96.4773 13.0815 96.4227 13.0442 96.38C13.0095 96.3347 12.9588 96.3053 12.8922 96.292L12.2122 96.168V95.752H14.4562V96.168L13.8882 96.292C13.8215 96.308 13.7695 96.3373 13.7322 96.38C13.6975 96.42 13.6802 96.4747 13.6802 96.544V102H12.9362L9.59216 96.896V101.224C9.59216 101.296 9.6095 101.353 9.64416 101.396C9.67883 101.439 9.73083 101.465 9.80016 101.476L10.5242 101.592ZM19.5855 102H16.3935V101.592L17.3295 101.448C17.4015 101.437 17.4548 101.412 17.4895 101.372C17.5268 101.332 17.5455 101.277 17.5455 101.208V96.2H17.0735C16.8975 96.2 16.7362 96.2093 16.5895 96.228C16.4428 96.244 16.3322 96.2653 16.2575 96.292C16.1962 96.3133 16.1482 96.3427 16.1135 96.38C16.0788 96.4147 16.0535 96.464 16.0375 96.528L15.7775 97.66H15.2975C15.2708 97.3187 15.2615 96.9947 15.2695 96.688C15.2802 96.3813 15.3042 96.0693 15.3415 95.752H20.6535C20.6882 96.0693 20.7068 96.3827 20.7095 96.692C20.7122 97.0013 20.7002 97.324 20.6735 97.66H20.1935L19.9375 96.528C19.9242 96.464 19.9002 96.4147 19.8655 96.38C19.8308 96.3427 19.7842 96.3133 19.7255 96.292C19.6455 96.2627 19.5362 96.24 19.3975 96.224C19.2615 96.208 19.1015 96.2 18.9175 96.2H18.4335V101.208C18.4335 101.277 18.4522 101.332 18.4895 101.372C18.5268 101.412 18.5802 101.437 18.6495 101.448L19.5855 101.592V102ZM25.9861 97.288H25.5421L25.3581 96.532C25.3421 96.4707 25.3154 96.4227 25.2781 96.388C25.2408 96.3507 25.1901 96.32 25.1261 96.296C25.0354 96.2613 24.9168 96.2373 24.7701 96.224C24.6261 96.208 24.4674 96.2 24.2941 96.2H23.2941V98.552L25.2421 98.484V99.1L23.2941 99.048V101.512H24.5221C24.6954 101.512 24.8621 101.505 25.0221 101.492C25.1848 101.479 25.3114 101.455 25.4021 101.42C25.4634 101.396 25.5101 101.365 25.5421 101.328C25.5768 101.291 25.6048 101.243 25.6261 101.184L25.9261 100.312L26.3661 100.376C26.3634 100.635 26.3474 100.901 26.3181 101.176C26.2888 101.451 26.2488 101.725 26.1981 102H21.5541V101.592L22.1941 101.476C22.2634 101.463 22.3154 101.435 22.3501 101.392C22.3848 101.349 22.4021 101.293 22.4021 101.224V96.544C22.4021 96.4773 22.3834 96.4227 22.3461 96.38C22.3114 96.3347 22.2608 96.3053 22.1941 96.292L21.5541 96.168V95.752H25.9941C26.0154 96 26.0248 96.2507 26.0221 96.504C26.0221 96.7573 26.0101 97.0187 25.9861 97.288ZM29.0183 96.188V98.796C29.1063 98.8013 29.2023 98.8053 29.3063 98.808C29.4103 98.8107 29.5103 98.812 29.6063 98.812C29.7023 98.812 29.7903 98.812 29.8703 98.812C29.9529 98.812 30.0156 98.812 30.0583 98.812C30.3969 98.8093 30.6729 98.6947 30.8863 98.468C31.1023 98.2413 31.2103 97.8867 31.2103 97.404C31.2103 97.0013 31.1089 96.6893 30.9063 96.468C30.7063 96.2467 30.3343 96.136 29.7903 96.136C29.6329 96.136 29.4823 96.1427 29.3383 96.156C29.1969 96.1693 29.0903 96.18 29.0183 96.188ZM29.9103 101.592V102H27.2823V101.592L27.9143 101.472C27.9809 101.459 28.0329 101.433 28.0703 101.396C28.1103 101.356 28.1303 101.3 28.1303 101.228V96.54C28.1303 96.4707 28.1116 96.416 28.0743 96.376C28.0369 96.3333 27.9849 96.3053 27.9183 96.292L27.2823 96.168V95.752H28.5743C28.8063 95.752 29.0249 95.7427 29.2303 95.724C29.4356 95.7027 29.6716 95.692 29.9383 95.692C30.7383 95.692 31.3089 95.8293 31.6503 96.104C31.9916 96.376 32.1623 96.7907 32.1623 97.348C32.1623 97.6573 32.1169 97.9187 32.0263 98.132C31.9383 98.3427 31.8276 98.516 31.6943 98.652C31.5609 98.7853 31.4143 98.888 31.2543 98.96C31.0969 99.032 30.9489 99.0853 30.8103 99.12C30.9596 99.2187 31.0916 99.3427 31.2063 99.492C31.3209 99.6413 31.4356 99.8267 31.5503 100.048L32.1503 101.204C32.2009 101.303 32.2503 101.371 32.2983 101.408C32.3463 101.445 32.4156 101.473 32.5063 101.492L32.9503 101.592V102H31.7143C31.5916 102 31.4769 101.912 31.3703 101.736C31.2663 101.56 31.1449 101.325 31.0063 101.032L30.6063 100.18C30.5129 99.9827 30.4196 99.8027 30.3263 99.64C30.2329 99.4773 30.1396 99.348 30.0463 99.252C29.8463 99.252 29.6556 99.252 29.4743 99.252C29.2956 99.2493 29.1436 99.248 29.0183 99.248V101.232C29.0183 101.304 29.0369 101.36 29.0743 101.4C29.1116 101.437 29.1663 101.461 29.2383 101.472L29.9103 101.592ZM36.1427 99.156C36.3321 99.156 36.5134 99.1293 36.6867 99.076C36.8627 99.02 37.0161 98.928 37.1467 98.8C37.2801 98.672 37.3854 98.5 37.4627 98.284C37.5427 98.0653 37.5827 97.7947 37.5827 97.472C37.5827 96.9893 37.4641 96.6467 37.2267 96.444C36.9894 96.2387 36.6294 96.136 36.1467 96.136C35.9627 96.136 35.8094 96.144 35.6867 96.16C35.5667 96.1733 35.4587 96.1813 35.3627 96.184V99.128C35.4934 99.136 35.6161 99.1427 35.7307 99.148C35.8481 99.1533 35.9854 99.156 36.1427 99.156ZM36.5347 101.592V102H33.6227V101.592L34.2707 101.476C34.3347 101.465 34.3841 101.439 34.4187 101.396C34.4534 101.353 34.4707 101.301 34.4707 101.24V96.528C34.4707 96.4773 34.4547 96.4293 34.4227 96.384C34.3907 96.3387 34.3481 96.3107 34.2947 96.3L33.6227 96.168V95.752H34.9227C35.0454 95.752 35.1561 95.7493 35.2547 95.744C35.3561 95.7387 35.4574 95.732 35.5587 95.724C35.6627 95.716 35.7761 95.7093 35.8987 95.704C36.0241 95.6987 36.1734 95.696 36.3467 95.696C36.7574 95.696 37.1027 95.736 37.3827 95.816C37.6627 95.896 37.8854 96.0107 38.0507 96.16C38.2187 96.3093 38.3374 96.4947 38.4067 96.716C38.4787 96.9373 38.5147 97.1867 38.5147 97.464C38.5147 97.8 38.4561 98.1027 38.3387 98.372C38.2214 98.6387 38.0574 98.864 37.8467 99.048C37.6387 99.2293 37.3881 99.368 37.0947 99.464C36.8041 99.56 36.4867 99.608 36.1427 99.608C36.0121 99.608 35.8814 99.6053 35.7507 99.6C35.6227 99.592 35.4934 99.5853 35.3627 99.58V101.24C35.3627 101.299 35.3801 101.349 35.4147 101.392C35.4521 101.432 35.5001 101.455 35.5587 101.46L36.5347 101.592ZM41.1084 96.188V98.796C41.1964 98.8013 41.2924 98.8053 41.3964 98.808C41.5004 98.8107 41.6004 98.812 41.6964 98.812C41.7924 98.812 41.8804 98.812 41.9604 98.812C42.043 98.812 42.1057 98.812 42.1484 98.812C42.487 98.8093 42.763 98.6947 42.9764 98.468C43.1924 98.2413 43.3004 97.8867 43.3004 97.404C43.3004 97.0013 43.199 96.6893 42.9964 96.468C42.7964 96.2467 42.4244 96.136 41.8804 96.136C41.723 96.136 41.5724 96.1427 41.4284 96.156C41.287 96.1693 41.1804 96.18 41.1084 96.188ZM42.0004 101.592V102H39.3724V101.592L40.0044 101.472C40.071 101.459 40.123 101.433 40.1604 101.396C40.2004 101.356 40.2204 101.3 40.2204 101.228V96.54C40.2204 96.4707 40.2017 96.416 40.1644 96.376C40.127 96.3333 40.075 96.3053 40.0084 96.292L39.3724 96.168V95.752H40.6644C40.8964 95.752 41.115 95.7427 41.3204 95.724C41.5257 95.7027 41.7617 95.692 42.0284 95.692C42.8284 95.692 43.399 95.8293 43.7404 96.104C44.0817 96.376 44.2524 96.7907 44.2524 97.348C44.2524 97.6573 44.207 97.9187 44.1164 98.132C44.0284 98.3427 43.9177 98.516 43.7844 98.652C43.651 98.7853 43.5044 98.888 43.3444 98.96C43.187 99.032 43.039 99.0853 42.9004 99.12C43.0497 99.2187 43.1817 99.3427 43.2964 99.492C43.411 99.6413 43.5257 99.8267 43.6404 100.048L44.2404 101.204C44.291 101.303 44.3404 101.371 44.3884 101.408C44.4364 101.445 44.5057 101.473 44.5964 101.492L45.0404 101.592V102H43.8044C43.6817 102 43.567 101.912 43.4604 101.736C43.3564 101.56 43.235 101.325 43.0964 101.032L42.6964 100.18C42.603 99.9827 42.5097 99.8027 42.4164 99.64C42.323 99.4773 42.2297 99.348 42.1364 99.252C41.9364 99.252 41.7457 99.252 41.5644 99.252C41.3857 99.2493 41.2337 99.248 41.1084 99.248V101.232C41.1084 101.304 41.127 101.36 41.1644 101.4C41.2017 101.437 41.2564 101.461 41.3284 101.472L42.0004 101.592ZM48.2968 95.752V96.168L47.6608 96.292C47.5942 96.3053 47.5422 96.3333 47.5048 96.376C47.4702 96.4187 47.4528 96.4747 47.4528 96.544V101.224C47.4528 101.293 47.4702 101.349 47.5048 101.392C47.5395 101.435 47.5915 101.463 47.6608 101.476L48.2968 101.592V102H45.7128V101.592L46.3528 101.476C46.4222 101.463 46.4742 101.435 46.5088 101.392C46.5435 101.349 46.5608 101.293 46.5608 101.224V96.544C46.5608 96.4773 46.5422 96.4227 46.5048 96.38C46.4702 96.3347 46.4195 96.3053 46.3528 96.292L45.7128 96.168V95.752H48.2968ZM53.5258 100.336C53.5258 100.557 53.4832 100.776 53.3978 100.992C53.3125 101.208 53.1818 101.4 53.0058 101.568C52.8298 101.736 52.6045 101.872 52.3298 101.976C52.0552 102.08 51.7298 102.132 51.3538 102.132C50.9325 102.132 50.5525 102.077 50.2138 101.968C49.8752 101.856 49.6018 101.737 49.3938 101.612C49.3832 101.356 49.3845 101.096 49.3978 100.832C49.4112 100.565 49.4352 100.304 49.4698 100.048H50.0018L50.1498 100.984C50.1578 101.027 50.1712 101.072 50.1898 101.12C50.2112 101.168 50.2458 101.216 50.2938 101.264C50.3978 101.371 50.5498 101.468 50.7498 101.556C50.9498 101.644 51.1738 101.688 51.4218 101.688C51.8112 101.688 52.1072 101.592 52.3098 101.4C52.5152 101.205 52.6178 100.944 52.6178 100.616C52.6178 100.424 52.5832 100.259 52.5138 100.12C52.4445 99.9813 52.3485 99.8587 52.2258 99.752C52.1032 99.6453 51.9538 99.5467 51.7778 99.456C51.6045 99.3653 51.4125 99.272 51.2018 99.176C51.0072 99.0853 50.8085 98.9867 50.6058 98.88C50.4032 98.7733 50.2205 98.648 50.0578 98.504C49.8952 98.36 49.7605 98.1893 49.6538 97.992C49.5498 97.792 49.4978 97.5573 49.4978 97.288C49.4978 97.0507 49.5418 96.832 49.6298 96.632C49.7178 96.4293 49.8472 96.256 50.0178 96.112C50.1885 95.9653 50.4018 95.8507 50.6578 95.768C50.9138 95.6853 51.2098 95.644 51.5458 95.644C51.8365 95.644 52.1298 95.6747 52.4258 95.736C52.7245 95.7947 52.9778 95.8747 53.1858 95.976C53.2045 96.24 53.2072 96.496 53.1938 96.744C53.1832 96.9893 53.1605 97.228 53.1258 97.46H52.6138L52.4578 96.64C52.4472 96.5893 52.4285 96.54 52.4018 96.492C52.3778 96.4413 52.3392 96.3947 52.2858 96.352C52.2032 96.28 52.0818 96.2173 51.9218 96.164C51.7618 96.108 51.5885 96.08 51.4018 96.08C51.0552 96.08 50.7912 96.1627 50.6098 96.328C50.4285 96.4907 50.3378 96.72 50.3378 97.016C50.3378 97.1973 50.3698 97.3533 50.4338 97.484C50.5005 97.612 50.5965 97.7293 50.7218 97.836C50.8472 97.94 51.0005 98.04 51.1818 98.136C51.3658 98.232 51.5752 98.336 51.8098 98.448C52.0258 98.5493 52.2365 98.6587 52.4418 98.776C52.6498 98.8907 52.8325 99.0213 52.9898 99.168C53.1498 99.3147 53.2792 99.484 53.3778 99.676C53.4765 99.8653 53.5258 100.085 53.5258 100.336ZM58.9478 97.288H58.5038L58.3198 96.532C58.3038 96.4707 58.2772 96.4227 58.2398 96.388C58.2025 96.3507 58.1518 96.32 58.0878 96.296C57.9972 96.2613 57.8785 96.2373 57.7318 96.224C57.5878 96.208 57.4292 96.2 57.2558 96.2H56.2558V98.552L58.2038 98.484V99.1L56.2558 99.048V101.512H57.4838C57.6572 101.512 57.8238 101.505 57.9838 101.492C58.1465 101.479 58.2732 101.455 58.3638 101.42C58.4252 101.396 58.4718 101.365 58.5038 101.328C58.5385 101.291 58.5665 101.243 58.5878 101.184L58.8878 100.312L59.3278 100.376C59.3252 100.635 59.3092 100.901 59.2798 101.176C59.2505 101.451 59.2105 101.725 59.1598 102H54.5158V101.592L55.1558 101.476C55.2252 101.463 55.2772 101.435 55.3118 101.392C55.3465 101.349 55.3638 101.293 55.3638 101.224V96.544C55.3638 96.4773 55.3452 96.4227 55.3078 96.38C55.2732 96.3347 55.2225 96.3053 55.1558 96.292L54.5158 96.168V95.752H58.9558C58.9772 96 58.9865 96.2507 58.9838 96.504C58.9838 96.7573 58.9718 97.0187 58.9478 97.288ZM64.488 100.336C64.488 100.557 64.4453 100.776 64.36 100.992C64.2747 101.208 64.144 101.4 63.968 101.568C63.792 101.736 63.5667 101.872 63.292 101.976C63.0173 102.08 62.692 102.132 62.316 102.132C61.8947 102.132 61.5147 102.077 61.176 101.968C60.8373 101.856 60.564 101.737 60.356 101.612C60.3453 101.356 60.3467 101.096 60.36 100.832C60.3733 100.565 60.3973 100.304 60.432 100.048H60.964L61.112 100.984C61.12 101.027 61.1333 101.072 61.152 101.12C61.1733 101.168 61.208 101.216 61.256 101.264C61.36 101.371 61.512 101.468 61.712 101.556C61.912 101.644 62.136 101.688 62.384 101.688C62.7733 101.688 63.0693 101.592 63.272 101.4C63.4773 101.205 63.58 100.944 63.58 100.616C63.58 100.424 63.5453 100.259 63.476 100.12C63.4067 99.9813 63.3107 99.8587 63.188 99.752C63.0653 99.6453 62.916 99.5467 62.74 99.456C62.5667 99.3653 62.3747 99.272 62.164 99.176C61.9693 99.0853 61.7707 98.9867 61.568 98.88C61.3653 98.7733 61.1827 98.648 61.02 98.504C60.8573 98.36 60.7227 98.1893 60.616 97.992C60.512 97.792 60.46 97.5573 60.46 97.288C60.46 97.0507 60.504 96.832 60.592 96.632C60.68 96.4293 60.8093 96.256 60.98 96.112C61.1507 95.9653 61.364 95.8507 61.62 95.768C61.876 95.6853 62.172 95.644 62.508 95.644C62.7987 95.644 63.092 95.6747 63.388 95.736C63.6867 95.7947 63.94 95.8747 64.148 95.976C64.1667 96.24 64.1693 96.496 64.156 96.744C64.1453 96.9893 64.1227 97.228 64.088 97.46H63.576L63.42 96.64C63.4093 96.5893 63.3907 96.54 63.364 96.492C63.34 96.4413 63.3013 96.3947 63.248 96.352C63.1653 96.28 63.044 96.2173 62.884 96.164C62.724 96.108 62.5507 96.08 62.364 96.08C62.0173 96.08 61.7533 96.1627 61.572 96.328C61.3907 96.4907 61.3 96.72 61.3 97.016C61.3 97.1973 61.332 97.3533 61.396 97.484C61.4627 97.612 61.5587 97.7293 61.684 97.836C61.8093 97.94 61.9627 98.04 62.144 98.136C62.328 98.232 62.5373 98.336 62.772 98.448C62.988 98.5493 63.1987 98.6587 63.404 98.776C63.612 98.8907 63.7947 99.0213 63.952 99.168C64.112 99.3147 64.2413 99.484 64.34 99.676C64.4387 99.8653 64.488 100.085 64.488 100.336ZM70.4821 99.156C70.6714 99.156 70.8527 99.1293 71.0261 99.076C71.2021 99.02 71.3554 98.928 71.4861 98.8C71.6194 98.672 71.7247 98.5 71.8021 98.284C71.8821 98.0653 71.9221 97.7947 71.9221 97.472C71.9221 96.9893 71.8034 96.6467 71.5661 96.444C71.3287 96.2387 70.9687 96.136 70.4861 96.136C70.3021 96.136 70.1487 96.144 70.0261 96.16C69.9061 96.1733 69.7981 96.1813 69.7021 96.184V99.128C69.8327 99.136 69.9554 99.1427 70.0701 99.148C70.1874 99.1533 70.3247 99.156 70.4821 99.156ZM70.8741 101.592V102H67.9621V101.592L68.6101 101.476C68.6741 101.465 68.7234 101.439 68.7581 101.396C68.7927 101.353 68.8101 101.301 68.8101 101.24V96.528C68.8101 96.4773 68.7941 96.4293 68.7621 96.384C68.7301 96.3387 68.6874 96.3107 68.6341 96.3L67.9621 96.168V95.752H69.2621C69.3847 95.752 69.4954 95.7493 69.5941 95.744C69.6954 95.7387 69.7967 95.732 69.8981 95.724C70.0021 95.716 70.1154 95.7093 70.2381 95.704C70.3634 95.6987 70.5127 95.696 70.6861 95.696C71.0967 95.696 71.4421 95.736 71.7221 95.816C72.0021 95.896 72.2247 96.0107 72.3901 96.16C72.5581 96.3093 72.6767 96.4947 72.7461 96.716C72.8181 96.9373 72.8541 97.1867 72.8541 97.464C72.8541 97.8 72.7954 98.1027 72.6781 98.372C72.5607 98.6387 72.3967 98.864 72.1861 99.048C71.9781 99.2293 71.7274 99.368 71.4341 99.464C71.1434 99.56 70.8261 99.608 70.4821 99.608C70.3514 99.608 70.2207 99.6053 70.0901 99.6C69.9621 99.592 69.8327 99.5853 69.7021 99.58V101.24C69.7021 101.299 69.7194 101.349 69.7541 101.392C69.7914 101.432 69.8394 101.455 69.8981 101.46L70.8741 101.592ZM75.4477 96.188V98.796C75.5357 98.8013 75.6317 98.8053 75.7357 98.808C75.8397 98.8107 75.9397 98.812 76.0357 98.812C76.1317 98.812 76.2197 98.812 76.2997 98.812C76.3824 98.812 76.445 98.812 76.4877 98.812C76.8264 98.8093 77.1024 98.6947 77.3157 98.468C77.5317 98.2413 77.6397 97.8867 77.6397 97.404C77.6397 97.0013 77.5384 96.6893 77.3357 96.468C77.1357 96.2467 76.7637 96.136 76.2197 96.136C76.0624 96.136 75.9117 96.1427 75.7677 96.156C75.6264 96.1693 75.5197 96.18 75.4477 96.188ZM76.3397 101.592V102H73.7117V101.592L74.3437 101.472C74.4104 101.459 74.4624 101.433 74.4997 101.396C74.5397 101.356 74.5597 101.3 74.5597 101.228V96.54C74.5597 96.4707 74.541 96.416 74.5037 96.376C74.4664 96.3333 74.4144 96.3053 74.3477 96.292L73.7117 96.168V95.752H75.0037C75.2357 95.752 75.4544 95.7427 75.6597 95.724C75.865 95.7027 76.101 95.692 76.3677 95.692C77.1677 95.692 77.7384 95.8293 78.0797 96.104C78.421 96.376 78.5917 96.7907 78.5917 97.348C78.5917 97.6573 78.5464 97.9187 78.4557 98.132C78.3677 98.3427 78.257 98.516 78.1237 98.652C77.9904 98.7853 77.8437 98.888 77.6837 98.96C77.5264 99.032 77.3784 99.0853 77.2397 99.12C77.389 99.2187 77.521 99.3427 77.6357 99.492C77.7504 99.6413 77.865 99.8267 77.9797 100.048L78.5797 101.204C78.6304 101.303 78.6797 101.371 78.7277 101.408C78.7757 101.445 78.845 101.473 78.9357 101.492L79.3797 101.592V102H78.1437C78.021 102 77.9064 101.912 77.7997 101.736C77.6957 101.56 77.5744 101.325 77.4357 101.032L77.0357 100.18C76.9424 99.9827 76.849 99.8027 76.7557 99.64C76.6624 99.4773 76.569 99.348 76.4757 99.252C76.2757 99.252 76.085 99.252 75.9037 99.252C75.725 99.2493 75.573 99.248 75.4477 99.248V101.232C75.4477 101.304 75.4664 101.36 75.5037 101.4C75.541 101.437 75.5957 101.461 75.6677 101.472L76.3397 101.592ZM82.6362 95.752V96.168L82.0002 96.292C81.9335 96.3053 81.8815 96.3333 81.8442 96.376C81.8095 96.4187 81.7922 96.4747 81.7922 96.544V101.224C81.7922 101.293 81.8095 101.349 81.8442 101.392C81.8788 101.435 81.9308 101.463 82.0002 101.476L82.6362 101.592V102H80.0522V101.592L80.6922 101.476C80.7615 101.463 80.8135 101.435 80.8482 101.392C80.8828 101.349 80.9002 101.293 80.9002 101.224V96.544C80.9002 96.4773 80.8815 96.4227 80.8442 96.38C80.8095 96.3347 80.7588 96.3053 80.6922 96.292L80.0522 96.168V95.752H82.6362ZM86.7372 102.02H85.9252L83.8452 96.504C83.8238 96.4453 83.7932 96.4 83.7532 96.368C83.7158 96.336 83.6678 96.3107 83.6092 96.292L83.1492 96.168V95.752H85.5572V96.168L84.7332 96.328L86.4812 101.12L88.0412 96.328L87.2212 96.168V95.752H89.3292V96.168L88.8452 96.292C88.7865 96.3107 88.7358 96.336 88.6932 96.368C88.6532 96.4 88.6238 96.4453 88.6052 96.504L86.7372 102.02ZM93.4439 99.604L92.3799 96.54L91.3719 99.604H93.4439ZM91.5599 101.592V102H89.4799V101.592L89.9679 101.476C90.0266 101.463 90.0759 101.439 90.1159 101.404C90.1586 101.369 90.1892 101.323 90.2079 101.264L92.1159 95.732H92.9719L94.9599 101.264C94.9812 101.323 95.0119 101.369 95.0519 101.404C95.0919 101.436 95.1412 101.46 95.1999 101.476L95.6599 101.592V102H93.2919V101.592L94.0839 101.448L93.6119 100.092H91.2119L90.7679 101.448L91.5599 101.592ZM99.9113 102H96.7193V101.592L97.6553 101.448C97.7273 101.437 97.7806 101.412 97.8153 101.372C97.8526 101.332 97.8713 101.277 97.8713 101.208V96.2H97.3993C97.2233 96.2 97.0619 96.2093 96.9153 96.228C96.7686 96.244 96.6579 96.2653 96.5833 96.292C96.5219 96.3133 96.4739 96.3427 96.4393 96.38C96.4046 96.4147 96.3793 96.464 96.3633 96.528L96.1033 97.66H95.6233C95.5966 97.3187 95.5873 96.9947 95.5953 96.688C95.6059 96.3813 95.6299 96.0693 95.6673 95.752H100.979C101.014 96.0693 101.033 96.3827 101.035 96.692C101.038 97.0013 101.026 97.324 100.999 97.66H100.519L100.263 96.528C100.25 96.464 100.226 96.4147 100.191 96.38C100.157 96.3427 100.11 96.3133 100.051 96.292C99.9713 96.2627 99.8619 96.24 99.7233 96.224C99.5873 96.208 99.4273 96.2 99.2433 96.2H98.7593V101.208C98.7593 101.277 98.7779 101.332 98.8153 101.372C98.8526 101.412 98.9059 101.437 98.9753 101.448L99.9113 101.592V102ZM106.312 97.288H105.868L105.684 96.532C105.668 96.4707 105.641 96.4227 105.604 96.388C105.567 96.3507 105.516 96.32 105.452 96.296C105.361 96.2613 105.243 96.2373 105.096 96.224C104.952 96.208 104.793 96.2 104.62 96.2H103.62V98.552L105.568 98.484V99.1L103.62 99.048V101.512H104.848C105.021 101.512 105.188 101.505 105.348 101.492C105.511 101.479 105.637 101.455 105.728 101.42C105.789 101.396 105.836 101.365 105.868 101.328C105.903 101.291 105.931 101.243 105.952 101.184L106.252 100.312L106.692 100.376C106.689 100.635 106.673 100.901 106.644 101.176C106.615 101.451 106.575 101.725 106.524 102H101.88V101.592L102.52 101.476C102.589 101.463 102.641 101.435 102.676 101.392C102.711 101.349 102.728 101.293 102.728 101.224V96.544C102.728 96.4773 102.709 96.4227 102.672 96.38C102.637 96.3347 102.587 96.3053 102.52 96.292L101.88 96.168V95.752H106.32C106.341 96 106.351 96.2507 106.348 96.504C106.348 96.7573 106.336 97.0187 106.312 97.288ZM114.08 101.176L114.424 100.088L114.884 100.156C114.879 100.439 114.863 100.744 114.836 101.072C114.812 101.4 114.771 101.709 114.712 102H110.092V101.592L110.732 101.48C110.801 101.469 110.853 101.443 110.888 101.4C110.923 101.355 110.94 101.299 110.94 101.232V96.54C110.94 96.4707 110.923 96.4147 110.888 96.372C110.853 96.3293 110.801 96.3013 110.732 96.288L110.092 96.168V95.752H112.872V96.168L112.04 96.296C111.971 96.3067 111.917 96.3333 111.88 96.376C111.845 96.4187 111.828 96.4747 111.828 96.544V101.512H112.968C113.155 101.512 113.324 101.504 113.476 101.488C113.631 101.472 113.755 101.447 113.848 101.412C113.909 101.391 113.959 101.361 113.996 101.324C114.033 101.287 114.061 101.237 114.08 101.176ZM118.254 95.752V96.168L117.618 96.292C117.551 96.3053 117.499 96.3333 117.462 96.376C117.427 96.4187 117.41 96.4747 117.41 96.544V101.224C117.41 101.293 117.427 101.349 117.462 101.392C117.496 101.435 117.548 101.463 117.618 101.476L118.254 101.592V102H115.67V101.592L116.31 101.476C116.379 101.463 116.431 101.435 116.466 101.392C116.5 101.349 116.518 101.293 116.518 101.224V96.544C116.518 96.4773 116.499 96.4227 116.462 96.38C116.427 96.3347 116.376 96.3053 116.31 96.292L115.67 96.168V95.752H118.254ZM121.283 101.592V102H119.055V101.592L119.655 101.476C119.721 101.465 119.772 101.44 119.807 101.4C119.844 101.357 119.867 101.303 119.875 101.236L120.439 96.556C120.449 96.484 120.437 96.4253 120.403 96.38C120.371 96.332 120.319 96.3027 120.247 96.292L119.523 96.168V95.752H121.695L123.203 100.428L124.531 95.752H126.711V96.168L125.979 96.292C125.904 96.3053 125.851 96.336 125.819 96.384C125.789 96.4293 125.78 96.4893 125.791 96.564L126.535 101.24C126.543 101.304 126.565 101.357 126.603 101.4C126.643 101.44 126.693 101.465 126.755 101.476L127.351 101.592V102H124.919V101.592L125.667 101.46L124.891 96.544L123.407 101.736H122.767L121.027 96.54L120.459 101.46L121.283 101.592ZM130.655 95.752V96.168L130.019 96.292C129.953 96.3053 129.901 96.3333 129.863 96.376C129.829 96.4187 129.811 96.4747 129.811 96.544V101.224C129.811 101.293 129.829 101.349 129.863 101.392C129.898 101.435 129.95 101.463 130.019 101.476L130.655 101.592V102H128.071V101.592L128.711 101.476C128.781 101.463 128.833 101.435 128.867 101.392C128.902 101.349 128.919 101.293 128.919 101.224V96.544C128.919 96.4773 128.901 96.4227 128.863 96.38C128.829 96.3347 128.778 96.3053 128.711 96.292L128.071 96.168V95.752H130.655ZM135.84 102H132.648V101.592L133.584 101.448C133.656 101.437 133.71 101.412 133.744 101.372C133.782 101.332 133.8 101.277 133.8 101.208V96.2H133.328C133.152 96.2 132.991 96.2093 132.844 96.228C132.698 96.244 132.587 96.2653 132.512 96.292C132.451 96.3133 132.403 96.3427 132.368 96.38C132.334 96.4147 132.308 96.464 132.292 96.528L132.032 97.66H131.552C131.526 97.3187 131.516 96.9947 131.524 96.688C131.535 96.3813 131.559 96.0693 131.596 95.752H136.908C136.943 96.0693 136.962 96.3827 136.964 96.692C136.967 97.0013 136.955 97.324 136.928 97.66H136.448L136.192 96.528C136.179 96.464 136.155 96.4147 136.12 96.38C136.086 96.3427 136.039 96.3133 135.98 96.292C135.9 96.2627 135.791 96.24 135.652 96.224C135.516 96.208 135.356 96.2 135.172 96.2H134.688V101.208C134.688 101.277 134.707 101.332 134.744 101.372C134.782 101.412 134.835 101.437 134.904 101.448L135.84 101.592V102ZM142.241 97.288H141.797L141.613 96.532C141.597 96.4707 141.57 96.4227 141.533 96.388C141.496 96.3507 141.445 96.32 141.381 96.296C141.29 96.2613 141.172 96.2373 141.025 96.224C140.881 96.208 140.722 96.2 140.549 96.2H139.549V98.552L141.497 98.484V99.1L139.549 99.048V101.512H140.777C140.95 101.512 141.117 101.505 141.277 101.492C141.44 101.479 141.566 101.455 141.657 101.42C141.718 101.396 141.765 101.365 141.797 101.328C141.832 101.291 141.86 101.243 141.881 101.184L142.181 100.312L142.621 100.376C142.618 100.635 142.602 100.901 142.573 101.176C142.544 101.451 142.504 101.725 142.453 102H137.809V101.592L138.449 101.476C138.518 101.463 138.57 101.435 138.605 101.392C138.64 101.349 138.657 101.293 138.657 101.224V96.544C138.657 96.4773 138.638 96.4227 138.601 96.38C138.566 96.3347 138.516 96.3053 138.449 96.292L137.809 96.168V95.752H142.249C142.27 96 142.28 96.2507 142.277 96.504C142.277 96.7573 142.265 97.0187 142.241 97.288ZM144.821 95.752C145.08 95.752 145.325 95.7427 145.557 95.724C145.789 95.7027 146.029 95.692 146.277 95.692C147.307 95.692 148.065 95.9493 148.553 96.464C149.041 96.976 149.285 97.72 149.285 98.696C149.285 99.2507 149.212 99.7413 149.065 100.168C148.919 100.592 148.711 100.945 148.441 101.228C148.172 101.511 147.844 101.723 147.457 101.864C147.071 102.005 146.64 102.071 146.165 102.06C145.989 102.057 145.777 102.047 145.529 102.028C145.281 102.009 145.049 102 144.833 102H143.537V101.592L144.181 101.476C144.248 101.465 144.299 101.439 144.333 101.396C144.368 101.353 144.385 101.301 144.385 101.24V96.516C144.385 96.4627 144.369 96.416 144.337 96.376C144.305 96.336 144.263 96.3107 144.209 96.3L143.537 96.168V95.752H144.821ZM145.277 101.536C145.392 101.56 145.544 101.579 145.733 101.592C145.925 101.603 146.096 101.607 146.245 101.604C146.907 101.585 147.419 101.361 147.781 100.932C148.144 100.5 148.325 99.804 148.325 98.844C148.325 97.9187 148.14 97.2373 147.769 96.8C147.401 96.36 146.84 96.14 146.085 96.14C145.915 96.14 145.759 96.148 145.617 96.164C145.479 96.18 145.365 96.1907 145.277 96.196V101.536Z" fill="white"/>
</g>
<g filter="url(#filter1_d)">
<path d="M4.49295 27.2681V88.7751H22.3099V68.6343L43.0704 88.7751H59.8028V66.4652H81.493V50.5075H58.5634V43.3807H87.5352V27.2681H42.1408L22.3099 47.8737V27.2681H4.49295Z" stroke="url(#paint0_linear)" stroke-width="3.09859"/>
</g>
<g filter="url(#filter2_d)">
<path d="M48.1967 28.0128L41.5211 16.7157L71.6468 6.27441L101.944 16.7157L96.8086 28.0128H48.1967Z" fill="url(#paint1_radial)"/>
</g>
<g filter="url(#filter3_i)">
<ellipse cx="73.2817" cy="30.8311" rx="23.0845" ry="7.90141" fill="#232F3E"/>
</g>
<path d="M43.3803 42.9155L58.5634 43.2254V87.8451L43.3803 87.6902V42.9155Z" fill="#6A6B6C"/>
<g filter="url(#filter4_d)">
<path d="M117.433 43.2254L132.62 28.1973H147.493V35.6339L128.123 54.0705L117.433 43.2254Z" fill="#00A8CD"/>
</g>
<g filter="url(#filter5_d)">
<path d="M106.282 53.9155L117.592 42.9155L128.437 53.7606L117.592 65.2254L106.282 53.9155Z" fill="#076E8E"/>
<path d="M106.282 53.9155L117.592 42.9155L128.437 53.7606L117.592 65.2254L106.282 53.9155Z" stroke="url(#paint2_linear)" stroke-width="0.309859"/>
</g>
<path d="M58.5634 50.5073H80.5634L80.7183 65.3806L58.5634 65.2256V50.5073Z" fill="#6A6B6C"/>
<path d="M43.3803 87.6901V72.8169L58.2535 87.6901H43.3803Z" fill="#565353"/>
<path d="M43.5352 43.0705L88.1549 43.3804L88 28.1973H58.2535L43.5352 43.0705Z" fill="#00A8CD"/>
<path d="M43.3803 28.1973H58.2535L43.3803 43.2254V28.1973Z" fill="#076E8E"/>
<path d="M88 28.1973H102.873L88.1549 43.6902L88 28.1973Z" fill="#076E8E"/>
<path d="M20.9155 50.3521L43.3803 72.8168V87.6901L21.0704 65.3802L20.9155 50.3521Z" fill="url(#paint3_linear)"/>
<path d="M21.0704 50.5071C21.0704 50.755 11.1549 60.4226 6.19717 65.3804V28.1973H21.0704V50.5071Z" fill="url(#paint4_linear)"/>
<g filter="url(#filter6_d)">
<path d="M21.0704 50.5071L43.3803 28.1973V43.0705L21.0704 65.3804V50.5071Z" fill="#00A8CD"/>
</g>
<path d="M6.19717 87.6903V80.0987L13.7887 72.6621L21.0704 65.3804V87.6903H6.19717Z" fill="url(#paint5_linear)"/>
<path d="M6.19717 65.3806L21.0704 50.5073V65.3806L13.7887 72.8172L6.19717 80.0989V65.3806Z" fill="#94979A"/>
<g filter="url(#filter7_d)">
<path d="M88.1549 43.5353L102.873 28.1973V87.5353H88.1549V43.5353Z" fill="url(#paint6_linear)"/>
</g>
<path d="M43.5352 65.3806L58.4084 50.5073V65.3806H43.5352Z" fill="#565353"/>
<g filter="url(#filter8_d)">
<path d="M102.873 28.1973L117.703 42.8785L106.282 53.9156L102.638 50.5071L102.873 28.1973Z" fill="#00A8CD"/>
</g>
<g filter="url(#filter9_d)">
<path d="M132.62 49.7991L147.493 35.6343L147.648 87.5357H132.62V49.7991Z" fill="url(#paint7_linear)"/>
</g>
<path d="M102.427 16.8562C101.59 19.0889 93.5269 19.9608 85.2408 16.8562C76.9546 13.7516 71.5835 7.84614 72.42 5.61342C73.2566 3.3807 80.665 8.6727 88.9511 11.7773C97.2373 14.8819 103.263 14.6235 102.427 16.8562Z" fill="#232F3E"/>
<path d="M70.3778 5.15627C71.3918 7.66276 66.0893 13.936 57.8098 17.2854C49.5303 20.6347 41.409 19.7919 40.395 17.2854C39.3811 14.7789 46.296 14.6841 54.5755 11.3348C62.855 7.98541 69.3638 2.64978 70.3778 5.15627Z" fill="#232F3E"/>
<g filter="url(#filter10_d)">
<circle cx="71.3605" cy="4.02848" r="2.78873" fill="#D12828"/>
</g>
<g filter="url(#filter11_d)">
<circle cx="102.718" cy="15.9577" r="2.32394" fill="#D12828"/>
</g>
<g filter="url(#filter12_d)">
<circle cx="41.676" cy="17.197" r="2.32394" fill="#D12828"/>
</g>
<path d="M21.0704 50.5073L28.507 57.9439L21.0704 65.3806V50.5073Z" fill="#076E8E"/>
<path d="M21.0704 65.3806L13.6338 57.9439L21.0704 50.5073V65.3806Z" fill="#4E4747"/>
<path d="M104.113 28.1973H88.3099V87.6902H104.113V53.7606L117.746 65.5353L132.31 52.0564V87.6902H147.958L147.338 28.1973H132.31L117.746 43L104.113 28.1973Z" stroke="url(#paint8_linear)" stroke-width="3.09859"/>
</g>
<defs>
<filter id="filter0_d" x="1.436" y="94.644" width="150.849" height="10.488" filterUnits="userSpaceOnUse" color-interpolation-filters="sRGB">
<feFlood flood-opacity="0" result="BackgroundImageFix"/>
<feColorMatrix in="SourceAlpha" type="matrix" values="0 0 0 0 0 0 0 0 0 0 0 0 0 0 0 0 0 0 127 0"/>
<feOffset dx="1" dy="1"/>
<feGaussianBlur stdDeviation="1"/>
<feColorMatrix type="matrix" values="0 0 0 0 0 0 0 0 0 0 0 0 0 0 0 0 0 0 1 0"/>
<feBlend mode="normal" in2="BackgroundImageFix" result="effect1_dropShadow"/>
<feBlend mode="normal" in="SourceGraphic" in2="effect1_dropShadow" result="shape"/>
</filter>
<filter id="filter1_d" x="0.943657" y="22.7188" width="94.1408" height="72.6056" filterUnits="userSpaceOnUse" color-interpolation-filters="sRGB">
<feFlood flood-opacity="0" result="BackgroundImageFix"/>
<feColorMatrix in="SourceAlpha" type="matrix" values="0 0 0 0 0 0 0 0 0 0 0 0 0 0 0 0 0 0 127 0"/>
<feOffset dx="2" dy="1"/>
<feGaussianBlur stdDeviation="2"/>
<feColorMatrix type="matrix" values="0 0 0 0 0 0 0 0 0 0 0 0 0 0 0 0 0 0 1 0"/>
<feBlend mode="normal" in2="BackgroundImageFix" result="effect1_dropShadow"/>
<feBlend mode="normal" in="SourceGraphic" in2="effect1_dropShadow" result="shape"/>
</filter>
<filter id="filter2_d" x="37.5211" y="5.27441" width="70.4225" height="31.7384" filterUnits="userSpaceOnUse" color-interpolation-filters="sRGB">
<feFlood flood-opacity="0" result="BackgroundImageFix"/>
<feColorMatrix in="SourceAlpha" type="matrix" values="0 0 0 0 0 0 0 0 0 0 0 0 0 0 0 0 0 0 127 0"/>
<feOffset dx="1" dy="4"/>
<feGaussianBlur stdDeviation="2.5"/>
<feColorMatrix type="matrix" values="0 0 0 0 0 0 0 0 0 0 0 0 0 0 0 0 0 0 0.79 0"/>
<feBlend mode="normal" in2="BackgroundImageFix" result="effect1_dropShadow"/>
<feBlend mode="normal" in="SourceGraphic" in2="effect1_dropShadow" result="shape"/>
</filter>
<filter id="filter3_i" x="50.1972" y="22.9297" width="48.169" height="16.8028" filterUnits="userSpaceOnUse" color-interpolation-filters="sRGB">
<feFlood flood-opacity="0" result="BackgroundImageFix"/>
<feBlend mode="normal" in="SourceGraphic" in2="BackgroundImageFix" result="shape"/>
<feColorMatrix in="SourceAlpha" type="matrix" values="0 0 0 0 0 0 0 0 0 0 0 0 0 0 0 0 0 0 127 0" result="hardAlpha"/>
<feOffset dx="2" dy="1"/>
<feGaussianBlur stdDeviation="2.5"/>
<feComposite in2="hardAlpha" operator="arithmetic" k2="-1" k3="1"/>
<feColorMatrix type="matrix" values="0 0 0 0 0 0 0 0 0 0 0 0 0 0 0 0 0 0 1 0"/>
<feBlend mode="normal" in2="shape" result="effect1_innerShadow"/>
</filter>
<filter id="filter4_d" x="115.433" y="26.1973" width="40.0596" height="35.8732" filterUnits="userSpaceOnUse" color-interpolation-filters="sRGB">
<feFlood flood-opacity="0" result="BackgroundImageFix"/>
<feColorMatrix in="SourceAlpha" type="matrix" values="0 0 0 0 0 0 0 0 0 0 0 0 0 0 0 0 0 0 127 0"/>
<feOffset dx="3" dy="3"/>
<feGaussianBlur stdDeviation="2.5"/>
<feColorMatrix type="matrix" values="0 0 0 0 0 0 0 0 0 0 0 0 0 0 0 0 0 0 1 0"/>
<feBlend mode="normal" in2="BackgroundImageFix" result="effect1_dropShadow"/>
<feBlend mode="normal" in="SourceGraphic" in2="effect1_dropShadow" result="shape"/>
</filter>
<filter id="filter5_d" x="104.061" y="40.6978" width="32.5917" height="32.7496" filterUnits="userSpaceOnUse" color-interpolation-filters="sRGB">
<feFlood flood-opacity="0" result="BackgroundImageFix"/>
<feColorMatrix in="SourceAlpha" type="matrix" values="0 0 0 0 0 0 0 0 0 0 0 0 0 0 0 0 0 0 127 0"/>
<feOffset dx="3" dy="3"/>
<feGaussianBlur stdDeviation="2.5"/>
<feColorMatrix type="matrix" values="0 0 0 0 0 0 0 0 0 0 0 0 0 0 0 0 0 0 1 0"/>
<feBlend mode="normal" in2="BackgroundImageFix" result="effect1_dropShadow"/>
<feBlend mode="normal" in="SourceGraphic" in2="effect1_dropShadow" result="shape"/>
</filter>
<filter id="filter6_d" x="15.0704" y="25.1973" width="34.3099" height="49.1831" filterUnits="userSpaceOnUse" color-interpolation-filters="sRGB">
<feFlood flood-opacity="0" result="BackgroundImageFix"/>
<feColorMatrix in="SourceAlpha" type="matrix" values="0 0 0 0 0 0 0 0 0 0 0 0 0 0 0 0 0 0 127 0"/>
<feOffset dy="3"/>
<feGaussianBlur stdDeviation="3"/>
<feColorMatrix type="matrix" values="0 0 0 0 0 0 0 0 0 0 0 0 0 0 0 0 0 0 1 0"/>
<feBlend mode="normal" in2="BackgroundImageFix" result="effect1_dropShadow"/>
<feBlend mode="normal" in="SourceGraphic" in2="effect1_dropShadow" result="shape"/>
</filter>
<filter id="filter7_d" x="86.1549" y="24.1973" width="26.7183" height="71.338" filterUnits="userSpaceOnUse" color-interpolation-filters="sRGB">
<feFlood flood-opacity="0" result="BackgroundImageFix"/>
<feColorMatrix in="SourceAlpha" type="matrix" values="0 0 0 0 0 0 0 0 0 0 0 0 0 0 0 0 0 0 127 0"/>
<feOffset dx="4" dy="2"/>
<feGaussianBlur stdDeviation="3"/>
<feColorMatrix type="matrix" values="0 0 0 0 0 0 0 0 0 0 0 0 0 0 0 0 0 0 1 0"/>
<feBlend mode="normal" in2="BackgroundImageFix" result="effect1_dropShadow"/>
<feBlend mode="normal" in="SourceGraphic" in2="effect1_dropShadow" result="shape"/>
</filter>
<filter id="filter8_d" x="96.6382" y="21.1973" width="27.0645" height="37.7183" filterUnits="userSpaceOnUse" color-interpolation-filters="sRGB">
<feFlood flood-opacity="0" result="BackgroundImageFix"/>
<feColorMatrix in="SourceAlpha" type="matrix" values="0 0 0 0 0 0 0 0 0 0 0 0 0 0 0 0 0 0 127 0"/>
<feOffset dy="-1"/>
<feGaussianBlur stdDeviation="3"/>
<feColorMatrix type="matrix" values="0 0 0 0 0 0 0 0 0 0 0 0 0 0 0 0 0 0 1 0"/>
<feBlend mode="normal" in2="BackgroundImageFix" result="effect1_dropShadow"/>
<feBlend mode="normal" in="SourceGraphic" in2="effect1_dropShadow" result="shape"/>
</filter>
<filter id="filter9_d" x="129.62" y="31.6343" width="27.0282" height="63.9014" filterUnits="userSpaceOnUse" color-interpolation-filters="sRGB">
<feFlood flood-opacity="0" result="BackgroundImageFix"/>
<feColorMatrix in="SourceAlpha" type="matrix" values="0 0 0 0 0 0 0 0 0 0 0 0 0 0 0 0 0 0 127 0"/>
<feOffset dx="3" dy="2"/>
<feGaussianBlur stdDeviation="3"/>
<feColorMatrix type="matrix" values="0 0 0 0 0 0 0 0 0 0 0 0 0 0 0 0 0 0 1 0"/>
<feBlend mode="normal" in2="BackgroundImageFix" result="effect1_dropShadow"/>
<feBlend mode="normal" in="SourceGraphic" in2="effect1_dropShadow" result="shape"/>
</filter>
<filter id="filter10_d" x="64.5718" y="-1.76025" width="13.5775" height="13.5775" filterUnits="userSpaceOnUse" color-interpolation-filters="sRGB">
<feFlood flood-opacity="0" result="BackgroundImageFix"/>
<feColorMatrix in="SourceAlpha" type="matrix" values="0 0 0 0 0 0 0 0 0 0 0 0 0 0 0 0 0 0 127 0"/>
<feOffset dy="1"/>
<feGaussianBlur stdDeviation="2"/>
<feColorMatrix type="matrix" values="0 0 0 0 0 0 0 0 0 0 0 0 0 0 0 0 0 0 1 0"/>
<feBlend mode="normal" in2="BackgroundImageFix" result="effect1_dropShadow"/>
<feBlend mode="normal" in="SourceGraphic" in2="effect1_dropShadow" result="shape"/>
</filter>
<filter id="filter11_d" x="98.3943" y="11.6338" width="10.6479" height="10.6479" filterUnits="userSpaceOnUse" color-interpolation-filters="sRGB">
<feFlood flood-opacity="0" result="BackgroundImageFix"/>
<feColorMatrix in="SourceAlpha" type="matrix" values="0 0 0 0 0 0 0 0 0 0 0 0 0 0 0 0 0 0 127 0"/>
<feOffset dx="1" dy="1"/>
<feGaussianBlur stdDeviation="1.5"/>
<feColorMatrix type="matrix" values="0 0 0 0 0 0 0 0 0 0 0 0 0 0 0 0 0 0 1 0"/>
<feBlend mode="normal" in2="BackgroundImageFix" result="effect1_dropShadow"/>
<feBlend mode="normal" in="SourceGraphic" in2="effect1_dropShadow" result="shape"/>
</filter>
<filter id="filter12_d" x="34.3521" y="10.873" width="14.6479" height="14.6479" filterUnits="userSpaceOnUse" color-interpolation-filters="sRGB">
<feFlood flood-opacity="0" result="BackgroundImageFix"/>
<feColorMatrix in="SourceAlpha" type="matrix" values="0 0 0 0 0 0 0 0 0 0 0 0 0 0 0 0 0 0 127 0"/>
<feOffset dy="1"/>
<feGaussianBlur stdDeviation="2.5"/>
<feColorMatrix type="matrix" values="0 0 0 0 0 0 0 0 0 0 0 0 0 0 0 0 0 0 1 0"/>
<feBlend mode="normal" in2="BackgroundImageFix" result="effect1_dropShadow"/>
<feBlend mode="normal" in="SourceGraphic" in2="effect1_dropShadow" result="shape"/>
</filter>
<linearGradient id="paint0_linear" x1="59.6479" y1="64.761" x2="83.3521" y2="74.8314" gradientUnits="userSpaceOnUse">
<stop stop-color="#E3E3E3"/>
<stop offset="1" stop-color="#E3E3E3" stop-opacity="0"/>
</linearGradient>
<radialGradient id="paint1_radial" cx="0" cy="0" r="1" gradientUnits="userSpaceOnUse" gradientTransform="translate(71.7324 17.1436) rotate(89.7226) scale(14.4639 40.2029)">
<stop stop-color="#D12828"/>
<stop offset="1" stop-color="#FF4E4E" stop-opacity="0.72"/>
</radialGradient>
<linearGradient id="paint2_linear" x1="117.437" y1="63.0564" x2="117.437" y2="52.3662" gradientUnits="userSpaceOnUse">
<stop stop-color="#DFE5EA"/>
<stop offset="1" stop-color="#DFE5EA" stop-opacity="0"/>
</linearGradient>
<linearGradient id="paint3_linear" x1="35.9436" y1="68.7887" x2="44.7746" y2="81.8028" gradientUnits="userSpaceOnUse">
<stop stop-color="#5E5A5A"/>
<stop offset="1" stop-color="#C4C4C4"/>
</linearGradient>
<linearGradient id="paint4_linear" x1="13.4789" y1="28.3522" x2="13.7887" y2="61.5071" gradientUnits="userSpaceOnUse">
<stop stop-color="#00A8CD"/>
<stop offset="0.506943" stop-color="#6A6B6C"/>
</linearGradient>
<linearGradient id="paint5_linear" x1="11.1549" y1="83.6621" x2="23.7042" y2="89.5494" gradientUnits="userSpaceOnUse">
<stop stop-color="#6A6B6C"/>
<stop offset="1" stop-color="#C4C4C4"/>
</linearGradient>
<linearGradient id="paint6_linear" x1="95.4366" y1="69.8733" x2="95.2042" y2="87.2254" gradientUnits="userSpaceOnUse">
<stop stop-color="#5E5555"/>
<stop offset="1" stop-color="#C4C4C4"/>
</linearGradient>
<linearGradient id="paint7_linear" x1="140.056" y1="57.4793" x2="140.056" y2="93.1132" gradientUnits="userSpaceOnUse">
<stop stop-color="#5E5555"/>
<stop offset="1" stop-color="#5E5555" stop-opacity="0.46"/>
</linearGradient>
<linearGradient id="paint8_linear" x1="140.211" y1="72.1973" x2="114.493" y2="34.8592" gradientUnits="userSpaceOnUse">
<stop stop-color="#E3E3E3"/>
<stop offset="1" stop-color="#E3E3E3" stop-opacity="0"/>
</linearGradient>
<clipPath id="clip0">
<rect width="154" height="105" fill="white"/>
</clipPath>
</defs>
</svg>
