<svg xmlns="http://www.w3.org/2000/svg" xmlns:xlink="http://www.w3.org/1999/xlink" version="1.1" width="256" height="256" viewBox="0 0 256 256" xml:space="preserve">
<desc>Created with Fabric.js 1.7.22</desc>
<defs>
</defs>
<g transform="translate(128 128) scale(0.72 0.72)" style="">
	<g style="stroke: none; stroke-width: 0; stroke-dasharray: none; stroke-linecap: butt; stroke-linejoin: miter; stroke-miterlimit: 10; fill: none; fill-rule: nonzero; opacity: 1;" transform="translate(-175.05 -175.05000000000004) scale(3.89 3.89)" >
	<path d="M 34.006 89.999 c -0.536 0 -1.081 -0.103 -1.606 -0.32 L 22.32 85.504 c -2.148 -0.891 -3.171 -3.361 -2.282 -5.509 c 1.448 -3.495 0.089 -6.614 -1.665 -8.368 c -1.754 -1.753 -4.873 -3.111 -8.367 -1.664 c -1.042 0.432 -2.188 0.431 -3.227 0 c -1.041 -0.431 -1.851 -1.24 -2.282 -2.281 L 0.324 57.604 c -0.431 -1.04 -0.431 -2.186 0 -3.227 c 0.431 -1.04 1.241 -1.85 2.282 -2.281 c 3.495 -1.448 4.74 -4.614 4.74 -7.094 c 0 -2.48 -1.245 -5.646 -4.74 -7.093 c -1.041 -0.431 -1.851 -1.242 -2.282 -2.282 c -0.431 -1.041 -0.431 -2.187 0 -3.227 l 4.175 -10.078 c 0.89 -2.147 3.36 -3.171 5.508 -2.282 c 3.495 1.448 6.615 0.089 8.368 -1.665 c 1.754 -1.754 3.112 -4.873 1.665 -8.367 c -0.889 -2.147 0.134 -4.619 2.281 -5.509 l 10.08 -4.174 c 1.038 -0.432 2.185 -0.432 3.227 0 c 1.04 0.431 1.851 1.241 2.282 2.282 c 1.447 3.495 4.613 4.74 7.093 4.74 c 2.48 0 5.646 -1.245 7.094 -4.74 c 0.432 -1.041 1.241 -1.851 2.281 -2.282 c 1.041 -0.431 2.187 -0.432 3.228 0 l 10.079 4.174 c 1.04 0.431 1.851 1.242 2.281 2.282 c 0.432 1.041 0.432 2.187 0 3.227 c -1.447 3.494 -0.09 6.613 1.664 8.367 c 1.755 1.754 4.875 3.112 8.368 1.665 c 2.15 -0.891 4.617 0.135 5.509 2.281 L 89.68 32.4 c 0.889 2.147 -0.135 4.618 -2.281 5.508 c -3.495 1.448 -4.741 4.614 -4.741 7.094 c 0 2.48 1.245 5.646 4.74 7.094 l 0 0 c 2.146 0.89 3.171 3.36 2.282 5.508 l -4.175 10.08 c -0.89 2.149 -3.365 3.169 -5.509 2.281 c -3.493 -1.447 -6.613 -0.09 -8.368 1.664 c -1.754 1.754 -3.111 4.873 -1.664 8.368 c 0.89 2.147 -0.133 4.618 -2.281 5.509 l -10.079 4.175 c -2.148 0.89 -4.619 -0.135 -5.509 -2.282 c -1.448 -3.495 -4.614 -4.74 -7.094 -4.74 c -2.48 0 -5.646 1.245 -7.093 4.74 C 37.235 89.019 35.661 89.999 34.006 89.999 z M 13.019 65.35 c 3.006 0 5.92 1.187 8.184 3.45 c 3.403 3.403 4.373 8.28 2.531 12.727 c -0.045 0.109 0.007 0.236 0.118 0.282 l 10.078 4.175 c 0.109 0.043 0.236 -0.008 0.283 -0.118 c 1.842 -4.446 5.976 -7.209 10.788 -7.209 s 8.948 2.763 10.789 7.209 c 0.045 0.11 0.175 0.164 0.283 0.118 l 10.078 -4.175 c 0.055 -0.022 0.095 -0.063 0.117 -0.117 s 0.022 -0.11 0 -0.165 C 64.427 77.08 65.397 72.203 68.8 68.8 c 3.403 -3.404 8.282 -4.372 12.727 -2.531 c 0.054 0.021 0.109 0.023 0.165 0 c 0.055 -0.022 0.095 -0.063 0.117 -0.117 l 4.175 -10.079 c 0.045 -0.109 -0.008 -0.236 -0.118 -0.282 c -4.446 -1.842 -7.209 -5.976 -7.209 -10.789 s 2.763 -8.947 7.209 -10.789 c 0.11 -0.046 0.163 -0.172 0.118 -0.283 L 81.81 23.851 c -0.045 -0.109 -0.174 -0.162 -0.282 -0.117 c -4.449 1.842 -9.325 0.873 -12.727 -2.532 c -3.403 -3.403 -4.373 -8.28 -2.531 -12.726 c 0.022 -0.055 0.022 -0.11 0 -0.166 c -0.022 -0.055 -0.063 -0.094 -0.117 -0.117 L 56.072 4.019 c -0.108 -0.048 -0.237 0.007 -0.282 0.117 c -1.842 4.446 -5.976 7.209 -10.789 7.209 c 0 0 0 0 0 0 c -4.813 0 -8.947 -2.763 -10.788 -7.209 c -0.023 -0.055 -0.063 -0.094 -0.117 -0.117 c -0.055 -0.022 -0.11 -0.023 -0.165 0 l -10.08 4.174 c -0.109 0.045 -0.162 0.173 -0.117 0.283 c 1.842 4.446 0.872 9.323 -2.531 12.726 c -3.403 3.403 -8.279 4.373 -12.727 2.531 c -0.111 -0.047 -0.236 0.007 -0.282 0.117 L 4.019 33.93 c -0.023 0.055 -0.023 0.111 0 0.165 c 0.022 0.055 0.062 0.094 0.117 0.117 c 4.447 1.842 7.209 5.976 7.209 10.789 S 8.583 53.948 4.136 55.79 c -0.11 0.046 -0.162 0.172 -0.117 0.282 l 4.174 10.079 c 0.023 0.055 0.062 0.095 0.117 0.117 c 0.055 0.023 0.11 0.023 0.165 0 C 9.965 65.651 11.504 65.35 13.019 65.35 z M 45.001 65.206 c -11.141 0 -20.205 -9.063 -20.205 -20.205 s 9.064 -20.205 20.205 -20.205 c 11.141 0 20.205 9.064 20.205 20.205 S 56.143 65.206 45.001 65.206 z M 45.001 28.796 c -8.935 0 -16.205 7.27 -16.205 16.205 s 7.269 16.205 16.205 16.205 s 16.205 -7.269 16.205 -16.205 S 53.937 28.796 45.001 28.796 z" style="stroke: none; stroke-width: 1; stroke-dasharray: none; stroke-linecap: butt; stroke-linejoin: miter; stroke-miterlimit: 10; fill: rgb(96,105,117); fill-rule: nonzero; opacity: 1;" transform=" matrix(1 0 0 1 0 0) " stroke-linecap="round" />
</g>
</g>
</svg>