<svg width="30" height="30" viewBox="0 0 30 30" fill="none" xmlns="http://www.w3.org/2000/svg">
<path d="M8.88889 23.8889C9.72222 23.8889 10.4282 24.1783 11.0069 24.757C11.5856 25.3357 11.875 26.0301 11.875 26.8403C11.875 27.6505 11.5856 28.3449 11.0069 28.9236C10.4282 29.5023 9.72222 29.7917 8.88889 29.7917C8.05556 29.7917 7.36111 29.5023 6.80556 28.9236C6.25 28.3449 5.97222 27.6505 5.97222 26.8403C5.97222 26.0301 6.25 25.3357 6.80556 24.757C7.36111 24.1783 8.05556 23.8889 8.88889 23.8889ZM0 0.208344H4.86111L6.25 3.12501H28.125C28.5417 3.12501 28.9005 3.27547 29.2014 3.5764C29.5023 3.87733 29.6528 4.23612 29.6528 4.65279C29.6528 4.88427 29.5833 5.11575 29.4444 5.34723L24.1667 14.9306C23.6111 15.9491 22.7315 16.4583 21.5278 16.4583H10.4861L9.16667 18.8889V19.0972C9.16667 19.3287 9.28241 19.4445 9.51389 19.4445H26.6667V22.4306H8.88889C8.05556 22.4306 7.34954 22.1412 6.77083 21.5625C6.19213 20.9838 5.90278 20.2778 5.90278 19.4445C5.90278 18.9352 6.04167 18.4722 6.31944 18.0556L8.26389 14.375L2.98611 3.12501H0V0.208344ZM23.7153 23.8889C24.5255 23.8889 25.2199 24.1783 25.7986 24.757C26.3773 25.3357 26.6667 26.0301 26.6667 26.8403C26.6667 27.6505 26.3773 28.3449 25.7986 28.9236C25.2199 29.5023 24.5255 29.7917 23.7153 29.7917C22.9051 29.7917 22.2106 29.5023 21.6319 28.9236C21.0532 28.3449 20.7639 27.6505 20.7639 26.8403C20.7639 26.0301 21.0532 25.3357 21.6319 24.757C22.2106 24.1783 22.9051 23.8889 23.7153 23.8889Z" fill="white"/>
</svg>
